<svg width="225" height="212" viewBox="0 0 225 212" fill="none" xmlns="http://www.w3.org/2000/svg">
<path d="M225 209.897C225 209.975 174.628 210.032 112.505 210.032C50.3824 210.032 0 209.975 0 209.897C0 209.818 50.3615 209.761 112.505 209.761C174.649 209.761 225 209.823 225 209.897Z" fill="#263238"/>
<path d="M66.5264 31.4927L66.5682 33.5817C66.5682 33.5817 67.4194 49.7718 67.3672 52.2055C67.315 54.6392 59.1938 68.5261 59.1938 68.5261L64.1814 76.6577L76.089 55.2451L73.2374 32.2656L73.1643 31.6964" fill="#FFBE9D"/>
<path d="M72.5741 28.9913L70.9707 23.095L64.7036 26.7195C64.7036 27.2417 66.5785 31.4929 66.5785 31.4929L67.6648 32.621C67.6648 32.621 73.112 32.0465 73.2269 31.9891C73.3418 31.9316 72.5741 28.9913 72.5741 28.9913Z" fill="#FFBE9D"/>
<path d="M71.164 23.5126C71.164 23.5126 71.2006 23.5596 71.2267 23.638C71.4669 24.2751 72.1667 27.1528 71.8482 27.3669C71.5296 27.581 70.4537 27.6332 70.2814 27.2729C70.109 26.9125 69.5137 23.6171 69.5137 23.6171C69.5137 23.6171 69.451 23.0948 70.2762 22.7449C70.788 22.5464 71.164 23.5126 71.164 23.5126Z" fill="#FFBE9D"/>
<path d="M69.1794 22.9276C69.1794 22.9276 69.216 22.9746 69.2421 23.0478C69.4823 23.6901 70.1821 26.5626 69.8636 26.7767C69.545 26.9908 68.4691 27.043 68.2968 26.6827C68.1244 26.3223 67.5291 23.0269 67.5291 23.0269C67.5291 23.0269 67.4716 22.5046 68.2916 22.1599C68.8034 21.9562 69.1794 22.9276 69.1794 22.9276Z" fill="#FFBE9D"/>
<path d="M67.3672 22.8651C67.3976 22.9014 67.4191 22.9443 67.4299 22.9904C67.6701 23.6276 68.3647 26.5052 68.0462 26.7193C67.7276 26.9335 66.657 26.9857 66.4794 26.6253C66.3018 26.265 65.7117 22.9695 65.7117 22.9695C65.7117 22.9695 65.649 22.4473 66.4742 22.1026C66.9912 21.878 67.3672 22.8651 67.3672 22.8651Z" fill="#FFBE9D"/>
<path d="M65.5706 22.7919C65.601 22.8282 65.6225 22.8712 65.6333 22.9173C65.8735 23.5544 66.5681 26.4321 66.2495 26.6462C65.931 26.8603 64.8551 26.9126 64.6828 26.5522C64.5104 26.1918 63.915 22.8964 63.915 22.8964C63.915 22.8964 63.8524 22.3741 64.6775 22.0294C65.1946 21.8205 65.5706 22.7919 65.5706 22.7919Z" fill="#FFBE9D"/>
<path d="M70.0569 26.4372C70.044 25.9526 69.9686 25.4716 69.8323 25.0063C69.7582 24.5352 69.6249 24.0755 69.4354 23.6379C69.4483 24.1226 69.5238 24.6036 69.66 25.0689C69.7341 25.5399 69.8675 25.9997 70.0569 26.4372Z" fill="#EB996E"/>
<path d="M68.3595 26.8812C68.3066 26.198 68.1895 25.5213 68.0096 24.8601C67.8996 24.1833 67.7247 23.5187 67.4873 22.8755C67.5468 23.5579 67.6638 24.234 67.8372 24.8966C67.954 25.5719 68.1287 26.2359 68.3595 26.8812Z" fill="#EB996E"/>
<g opacity="0.78">
<path d="M66.6203 27.1841C66.5611 26.4999 66.4441 25.8221 66.2704 25.1577C66.1537 24.4824 65.9789 23.8184 65.7482 23.1731C65.8011 23.858 65.9182 24.5365 66.0981 25.1995C66.209 25.876 66.3839 26.5405 66.6203 27.1841Z" fill="#EB996E"/>
</g>
<path d="M67.9782 30.9183L66.0772 29.3829C65.2442 28.7116 64.7033 27.744 64.5678 26.6828L64.4634 25.8733L70.2082 24.7139C70.2082 24.7139 70.2082 26.8499 68.5892 26.876L70.6104 27.9205L67.9782 30.9183Z" fill="#FFBE9D"/>
<path d="M70.3336 28.3332C70.3075 28.3332 70.1822 28.0981 69.8375 27.7796C69.3612 27.3402 68.741 27.0895 68.0932 27.0745H67.4769L68.0566 26.8604L69.3831 26.3695C69.6486 26.2276 69.8676 26.0123 70.014 25.7493C70.1603 25.4862 70.2278 25.1866 70.2083 24.8862C70.2036 24.8403 70.1949 24.7949 70.1822 24.7505L70.3441 24.8392C68.7408 25.2362 67.2889 25.5704 66.2287 25.7532C65.7064 25.8472 65.2677 25.9046 64.9648 25.9412C64.8106 25.9631 64.6542 25.9631 64.5 25.9412C65.055 25.7798 65.6181 25.6473 66.1869 25.5443C67.2314 25.3197 68.6729 24.9541 70.2762 24.5572L70.4015 24.5259L70.4381 24.646C70.4564 24.7058 70.4704 24.7669 70.4799 24.8288C70.5196 25.1948 70.433 25.5633 70.2344 25.8733C70.0488 26.151 69.8046 26.3845 69.5189 26.5575L68.1767 27.0171L68.1402 26.7977C68.8395 26.8261 69.4997 27.128 69.9785 27.6385C70.1606 27.8316 70.2838 28.0725 70.3336 28.3332Z" fill="#EB996E"/>
<path d="M69.9837 25.6747C70.0307 25.6747 70.1247 25.9358 70.4172 26.197C70.4912 26.269 70.5861 26.3159 70.6883 26.3309C70.7905 26.3459 70.8949 26.3283 70.9865 26.2805C71.0884 26.1955 71.1658 26.0849 71.2108 25.9601C71.2558 25.8353 71.2667 25.7007 71.2424 25.5703C71.1745 24.9227 71.1379 24.3168 71.0805 23.899C71.023 23.4812 70.9499 23.2149 70.9917 23.1992C71.0335 23.1835 71.1536 23.429 71.2685 23.8625C71.3878 24.4204 71.4698 24.9857 71.514 25.5546C71.5427 25.7327 71.5208 25.9154 71.4506 26.0817C71.3804 26.2479 71.2648 26.391 71.117 26.4947C70.9812 26.5641 70.8263 26.5869 70.6762 26.5595C70.5261 26.5322 70.3892 26.4561 70.2866 26.3432C70.1629 26.2082 70.0702 26.0478 70.0151 25.8732C69.9785 25.753 69.9681 25.6851 69.9837 25.6747Z" fill="#EB996E"/>
<path d="M50.4616 44.6224C51.8508 44.5388 53.1408 45.3849 54.1174 46.3981C55.0941 47.4113 55.8148 48.6125 56.8123 49.5891C57.5539 50.315 58.4522 50.9417 58.9013 51.8766C59.6168 53.3703 59.0162 55.2974 59.9459 56.6866C60.4681 57.4648 61.3507 57.9244 61.8782 58.6921C62.531 59.6583 62.484 60.9221 62.3378 62.0815C62.3028 62.8968 62.0164 63.6813 61.5179 64.3273C61.0526 64.7609 60.4875 65.0731 59.8727 65.236C55.3143 66.7783 50.3922 66.884 45.7717 65.5389" fill="#263238"/>
<path d="M40.8887 53.9344C40.7691 52.9804 40.8422 52.012 41.1039 51.0868C41.3655 50.1616 41.8103 49.2983 42.4118 48.5482C43.0133 47.7981 43.7594 47.1764 44.6057 46.7201C45.452 46.2638 46.3814 45.982 47.3386 45.8916C49.1922 45.7485 51.0307 46.3168 52.4801 47.481C53.9296 48.6453 54.8811 50.3179 55.1412 52.1587C55.5873 54.7797 55.8941 57.4226 56.0603 60.0762C56.0133 63.7633 53.8564 65.1943 52.9842 65.6278C52.6699 65.7422 52.3443 65.8227 52.0128 65.868C52.0128 65.868 52.0128 65.868 52.0128 65.8941L52.8328 70.1244C53.2036 72.8976 51.6577 75.347 48.8897 75.7701C46.1217 76.1931 43.9439 74.0466 43.5209 71.2734L40.8887 53.9344Z" fill="#FFBE9D"/>
<path d="M54.5041 54.3364C54.4466 54.4199 53.9818 54.1588 53.3342 54.2528C52.6866 54.3468 52.2897 54.7228 52.2218 54.6549C52.1539 54.5871 52.2218 54.4826 52.415 54.305C52.658 54.0795 52.9642 53.9337 53.2924 53.8872C53.6167 53.8411 53.9473 53.8977 54.2377 54.0491C54.4518 54.1693 54.5354 54.2946 54.5041 54.3364Z" fill="#263238"/>
<path d="M48.9577 55.5377C48.895 55.6212 48.4354 55.3601 47.7878 55.4541C47.1402 55.5481 46.7433 55.9241 46.6702 55.8615C46.5971 55.7988 46.6702 55.6839 46.8634 55.5116C47.1056 55.2818 47.4148 55.1354 47.746 55.0938C48.0698 55.0427 48.4014 55.0976 48.6913 55.2504C48.9002 55.3706 48.989 55.4959 48.9577 55.5377Z" fill="#263238"/>
<path d="M51.1248 58.4831C51.4398 58.335 51.7711 58.2246 52.1119 58.1541C52.2686 58.1123 52.4148 58.06 52.4253 57.9504C52.4133 57.7829 52.3515 57.6228 52.2477 57.4908L51.6001 56.347C51.0154 55.3821 50.5072 54.3728 50.0803 53.3284C50.7449 54.2414 51.3335 55.2073 51.8403 56.2165C52.0597 56.6186 52.2686 57.0051 52.4723 57.3707C52.5988 57.5502 52.6597 57.7678 52.6446 57.9869C52.6287 58.0463 52.5998 58.1015 52.5601 58.1484C52.5203 58.1953 52.4708 58.2329 52.4148 58.2585C52.3309 58.2929 52.2433 58.3175 52.1537 58.3316C51.8192 58.4285 51.4731 58.4795 51.1248 58.4831Z" fill="#263238"/>
<path d="M51.9868 65.894C51.9868 65.894 49.6105 66.4424 46.3359 65.0688C46.3359 65.0688 47.746 68.1136 52.2114 67.0325L51.9868 65.894Z" fill="#EB996E"/>
<path d="M51.0674 60.0238C50.9291 59.8962 50.7612 59.805 50.5788 59.7585C50.3965 59.712 50.2054 59.7117 50.0229 59.7575C49.8875 59.79 49.7601 59.8493 49.648 59.9318C49.5358 60.0143 49.4414 60.1184 49.3701 60.238C49.3028 60.3545 49.2723 60.4887 49.2826 60.6229C49.2928 60.7571 49.3433 60.885 49.4275 60.99C49.5452 61.0864 49.6885 61.1462 49.8398 61.162C49.9911 61.1777 50.1437 61.1488 50.2788 61.0788C50.5565 60.9285 50.8029 60.7264 51.0047 60.4834C51.0671 60.4233 51.1184 60.3525 51.1562 60.2745C51.1743 60.2371 51.1805 60.195 51.1739 60.1539C51.1674 60.1128 51.1485 60.0747 51.1196 60.0447" fill="#EB996E"/>
<path d="M49.344 59.1831C49.4432 59.1831 49.5425 59.8412 50.1901 60.2276C50.8377 60.6141 51.5532 60.4418 51.5688 60.5358C51.5845 60.6298 51.4278 60.6924 51.1249 60.7447C50.7291 60.8076 50.3238 60.728 49.9812 60.5201C49.6502 60.3237 49.41 60.0046 49.3127 59.6322C49.2448 59.3659 49.297 59.1883 49.344 59.1831Z" fill="#263238"/>
<path d="M48.5136 53.5062C48.477 53.689 47.8399 53.6942 47.1191 53.8927C46.3984 54.0911 45.8396 54.3731 45.7195 54.2321C45.6673 54.1695 45.7195 53.9919 45.9597 53.7934C46.249 53.5462 46.5906 53.3679 46.9588 53.272C47.327 53.1761 47.7122 53.1651 48.0853 53.2398C48.3882 53.3077 48.5397 53.4226 48.5136 53.5062Z" fill="#263238"/>
<path d="M53.8773 52.4144C53.7885 52.5711 53.355 52.4876 52.8328 52.5555C52.3105 52.6233 51.8927 52.7905 51.7883 52.6547C51.6838 52.5189 51.7883 52.4353 51.9502 52.2734C52.1835 52.0752 52.471 51.9515 52.7753 51.9183C53.0793 51.8777 53.3882 51.9344 53.658 52.0802C53.8303 52.2003 53.9139 52.3361 53.8773 52.4144Z" fill="#263238"/>
<path d="M55.8619 51.3544C55.0994 52.5191 52.6813 51.7983 51.219 50.9993C50.4573 51.4871 49.5352 51.658 48.6493 51.4755C47.7634 51.2931 46.9838 50.7717 46.4769 50.0227C45.6413 51.0672 43.9439 50.7382 43.3433 49.537C42.7427 48.3358 43.0717 46.6854 43.923 45.6357C44.7783 44.6553 45.9569 44.0142 47.2446 43.8287C48.7224 43.5415 50.252 43.6937 51.6442 44.2664C53.0365 44.8391 54.2304 45.8072 55.0785 47.051C55.8828 48.2679 56.3685 49.9025 55.888 51.3596" fill="#263238"/>
<path d="M44.1214 45.5468C41.3795 45.0245 38.7369 47.756 38.4601 49.7249C37.9848 53.1196 38.4601 53.5426 37.8229 55.1668C37.4208 56.2114 36.0263 57.3081 35.478 58.3996C34.8826 59.5695 34.8878 61.5332 35.3004 62.7971C35.6451 63.8416 37.0604 66.7819 37.0604 66.7819C37.0604 66.7819 41.134 66.6513 43.2179 66.1186C43.7563 66.0082 44.261 65.772 44.6906 65.4292C45.0876 65.0689 44.2676 63.8259 44.3459 63.2984C44.5601 61.7943 45.6829 60.9221 45.3905 59.4389C44.9622 57.47 43.4111 57.3499 43.4424 55.3496C43.4424 54.3051 45.0562 52.7383 45.2025 51.6938C45.3487 50.6493 45.965 46.9412 44.1579 45.5729" fill="#263238"/>
<path d="M39.4838 66.8915C39.4838 66.8915 39.2853 66.6617 38.9615 66.2439C38.4778 65.6553 38.0707 65.0078 37.7499 64.3168C37.266 63.2988 37.0605 62.1707 37.1545 61.0474C37.2064 60.3655 37.3928 59.7006 37.7029 59.0911C38.0131 58.4815 38.4408 57.9394 38.9615 57.4961C39.5256 57.0417 40.168 56.697 40.7163 56.2374C41.2613 55.7989 41.6601 55.2051 41.8601 54.5348C42.0225 53.941 42.136 53.3349 42.1995 52.7226C42.2536 52.2005 42.3568 51.6847 42.5077 51.1819C42.6072 50.8216 42.7807 50.4859 43.0172 50.1963C43.2537 49.9068 43.548 49.6697 43.8812 49.5003C44.1384 49.3951 44.4129 49.3384 44.6907 49.3331C44.6202 49.3093 44.5458 49.2987 44.4714 49.3018C44.2569 49.2984 44.0439 49.3374 43.8447 49.4167C43.4828 49.5735 43.1597 49.8076 42.898 50.1027C42.6364 50.3977 42.4425 50.7465 42.3301 51.1245C42.1603 51.6334 42.0431 52.1584 41.9802 52.6913C41.9113 53.2903 41.7925 53.8825 41.6251 54.4617C41.434 55.0826 41.0566 55.6296 40.544 56.0285C40.0217 56.4672 39.3741 56.8067 38.784 57.2872C38.2402 57.7499 37.7946 58.3169 37.4735 58.9547C37.1524 59.5924 36.9623 60.288 36.9143 61.0004C36.8279 62.1603 37.0552 63.322 37.5723 64.3638C37.9131 65.0596 38.349 65.7047 38.8675 66.2805C39.0503 66.4789 39.207 66.6304 39.3114 66.7244C39.3607 66.788 39.4187 66.8442 39.4838 66.8915Z" fill="#455A64"/>
<path d="M59.4133 65.1157C59.4133 65.1157 59.4551 65.0687 59.5178 64.9695C59.6029 64.8207 59.6796 64.6673 59.7476 64.5099C59.9841 63.9223 60.1047 63.2945 60.1027 62.6611C60.1073 61.7115 59.841 60.7803 59.335 59.9767C59.0177 59.5226 58.6687 59.0915 58.2905 58.6867C57.9012 58.2708 57.6212 57.7647 57.4757 57.2139C57.2303 56.0702 57.6063 54.916 57.528 53.8506C57.5072 52.9051 57.2485 51.9801 56.7759 51.161C56.4499 50.6176 56.0163 50.1466 55.5016 49.777C55.3606 49.6799 55.2141 49.5909 55.0629 49.5106L54.901 49.4375C55.0679 49.5839 55.2422 49.7216 55.4233 49.8501C55.9047 50.2361 56.3073 50.7113 56.6088 51.2497C57.043 52.0522 57.2743 52.9487 57.2825 53.861C57.292 54.4025 57.2588 54.9438 57.1833 55.48C57.0992 56.0735 57.1116 56.6766 57.2198 57.2662C57.3745 57.8522 57.6724 58.3906 58.0868 58.8329C58.4621 59.2292 58.8111 59.6496 59.1313 60.0916C59.6274 60.8562 59.8988 61.7446 59.9147 62.6559C59.9323 63.273 59.8404 63.8883 59.6431 64.4734C59.5126 64.8912 59.3924 65.1053 59.4133 65.1157Z" fill="#455A64"/>
<path d="M47.8138 44.2358C48.4038 44.228 48.9937 44.2611 49.5791 44.335C50.9826 44.5703 52.2684 45.2646 53.2349 46.3092C54.1499 47.399 54.7575 48.7133 54.9949 50.1164C55.076 50.7029 55.1058 51.2953 55.0837 51.8869C55.1402 51.7343 55.1736 51.5741 55.1829 51.4116C55.2342 50.9744 55.2342 50.5327 55.1829 50.0955C54.9918 48.6385 54.3843 47.2676 53.4334 46.1473C52.4326 45.0625 51.0838 44.3622 49.6209 44.1679C49.1821 44.114 48.7383 44.114 48.2995 44.1679C48.1351 44.1649 47.9712 44.1878 47.8138 44.2358Z" fill="#455A64"/>
<path d="M51.7516 49.6517C51.7923 49.518 51.8117 49.3788 51.809 49.2391C51.8214 48.8559 51.781 48.4728 51.6889 48.1006C51.545 47.4793 51.2762 46.8938 50.8988 46.3797C50.5213 45.8656 50.0433 45.4337 49.4936 45.1103C48.944 44.7868 48.3343 44.5786 47.7016 44.4983C47.0689 44.418 46.4265 44.4673 45.8135 44.6432C45.4469 44.7434 45.0955 44.8928 44.769 45.0872C44.5392 45.2334 44.4243 45.3274 44.4347 45.3431C44.8926 45.1248 45.37 44.9499 45.8605 44.8208C47.055 44.5156 48.3217 44.6951 49.3843 45.3204C50.4468 45.9456 51.219 46.9656 51.5322 48.158C51.6466 48.649 51.72 49.1486 51.7516 49.6517Z" fill="#455A64"/>
<path d="M39.9278 90.8945C39.9278 90.8945 41.7349 95.0099 41.6304 96.958C41.5259 98.906 39.6615 105.236 39.6615 105.236L61.7478 107.299L61.8471 102.191L61.1838 81.1805L73.4987 62.447L64.1816 57.0469L55.1204 69.3461L52.8277 68.4583L42.9047 69.7117V71.4351L42.6227 71.4665C40.4465 71.929 38.361 72.7459 36.4496 73.8845C34.7119 74.967 33.3346 76.541 32.4922 78.407C31.6499 80.273 31.3804 82.347 31.7179 84.3663C32.12 86.8731 32.9034 89.9179 34.4075 91.6779C37.3009 95.0517 39.9278 90.8945 39.9278 90.8945Z" fill="#76BA03"/>
<path d="M36.794 81.0867C36.794 81.0867 35.666 74.6733 35.9793 74.2085C36.3658 73.6601 41.0087 71.6651 41.0766 71.8688L42.095 78.9193L36.794 81.0867Z" fill="#76BA03"/>
<path d="M55.6162 81.4417L55.0887 93.7409H59.7316V81.4417H55.6162Z" fill="#A3D156"/>
<path d="M47.934 87.5939C48.0208 87.584 48.1084 87.584 48.1951 87.5939H48.9942L52.0494 87.5469H52.1382V87.6409C52.1695 90.5916 52.1852 95.0047 52.1852 99.9401V100.076H47.2655V99.9401C47.4378 96.394 47.5945 93.3126 47.7042 91.0617C47.7669 90.0172 47.8139 89.145 47.8504 88.5183C47.8504 88.2415 47.8818 87.996 47.8974 87.8446C47.8883 87.7717 47.8883 87.698 47.8974 87.6252C47.9029 87.7087 47.9029 87.7924 47.8974 87.8759C47.8974 88.0639 47.8974 88.2937 47.8974 88.5757C47.8974 89.2129 47.8557 90.0798 47.8243 91.1557C47.746 93.3648 47.6363 96.4148 47.511 99.9297L47.3804 99.7939H52.0233L51.8875 99.9297C51.8875 94.9943 51.8875 90.5812 51.9345 87.6304L52.0233 87.7192L49.036 87.6252H48.216L47.934 87.5939Z" fill="#76BA03"/>
<path d="M65.8423 73.8324L60.9435 70.7354L65.2469 64.4526L70.2658 67.3668L65.8423 73.8324Z" fill="#76BA03"/>
<g opacity="0.4">
<path d="M60.9435 74.2085H46.5657V78.8723H60.9435V74.2085Z" fill="#A3D156"/>
</g>
<path d="M60.7345 86.8942C60.7093 86.7525 60.7093 86.6076 60.7345 86.4659C60.7711 86.1891 60.8181 85.7922 60.8599 85.3065C60.9733 84.0312 60.9733 82.7484 60.8599 81.4731C60.7405 80.1977 60.5063 78.9357 60.16 77.7024C59.8989 76.7571 59.6848 76.1826 59.7265 76.167C59.7683 76.1513 59.8153 76.2923 59.925 76.5482C60.0849 76.9062 60.2261 77.2723 60.348 77.6449C60.7487 78.8795 61.0115 80.1546 61.1314 81.447C61.2532 82.7392 61.2269 84.0411 61.0531 85.3274C61.0023 85.7157 60.9308 86.1009 60.839 86.4816C60.8262 86.6238 60.791 86.763 60.7345 86.8942Z" fill="#263238"/>
<path d="M67.7067 59.0891C67.4626 59.4762 67.1809 59.8383 66.8659 60.1702C66.3436 60.8126 65.555 61.69 64.6933 62.6509L63.7741 63.6641L63.6958 63.7529L63.6018 63.6902C62.8132 63.168 62.1395 62.6823 61.6694 62.3428C61.403 62.1803 61.159 61.9836 60.9435 61.7579C61.2302 61.8783 61.5033 62.0289 61.7582 62.207C62.2544 62.5099 62.949 62.9486 63.748 63.4709H63.5809L64.4896 62.4264C65.3514 61.4654 66.14 60.6141 66.7197 60.0031C67.0196 59.6685 67.3501 59.3625 67.7067 59.0891Z" fill="#FAFAFA"/>
<path d="M72.7831 63.5332C72.2819 63.354 71.7977 63.1302 71.3364 62.8647C70.4538 62.4208 69.2474 61.7836 67.926 61.0734C66.6047 60.3631 65.414 59.6998 64.5575 59.2141C64.0827 58.9713 63.6286 58.6901 63.1996 58.3733C63.7023 58.553 64.1881 58.7767 64.6515 59.0418C65.5289 59.4909 66.7405 60.1229 68.0566 60.8331C69.3727 61.5434 70.5687 62.2067 71.4252 62.6924C71.9008 62.9336 72.3551 63.2149 72.7831 63.5332Z" fill="#263238"/>
<path d="M23.1057 191.618L20.7399 202.314L16.426 210.241C16.351 210.377 16.305 210.527 16.2908 210.682C16.2767 210.836 16.2947 210.992 16.3438 211.139C16.3928 211.287 16.4719 211.422 16.5759 211.537C16.68 211.652 16.8068 211.745 16.9483 211.808C17.113 211.886 17.2943 211.923 17.4764 211.914C17.6584 211.906 17.8357 211.854 17.9928 211.761C19.9983 210.602 27.3569 206.298 27.4875 205.494C27.639 204.575 30.736 194.37 30.736 194.37L23.1057 191.618Z" fill="#76BA03"/>
<g opacity="0.6">
<path d="M16.9431 211.798L27.6233 204.779L27.5137 205.228C27.4175 205.607 27.1945 205.943 26.8817 206.178C26.0095 206.805 23.5706 208.492 18.0033 211.74C17.8452 211.831 17.6675 211.881 17.4856 211.888C17.3036 211.894 17.1228 211.856 16.9588 211.777L16.9431 211.798Z" fill="white"/>
</g>
<g opacity="0.6">
<path d="M26.3019 200.809C26.1468 200.873 26.021 200.993 25.9486 201.144C25.8763 201.296 25.8626 201.468 25.9102 201.629C25.9681 201.786 26.084 201.913 26.2338 201.986C26.3836 202.059 26.5558 202.072 26.7145 202.021C26.8785 201.953 27.0115 201.827 27.0878 201.667C27.164 201.507 27.178 201.324 27.1271 201.154C27.0482 200.997 26.9121 200.877 26.7468 200.817C26.5815 200.758 26.3998 200.765 26.2392 200.835" fill="white"/>
</g>
<path d="M20.5154 207.745C20.3425 207.354 20.0961 206.999 19.7895 206.701C19.4361 206.454 19.0391 206.277 18.6196 206.178C18.6196 206.147 18.7711 206.1 19.0322 206.126C19.3675 206.17 19.683 206.31 19.9409 206.528C20.2055 206.744 20.4 207.033 20.4998 207.359C20.5677 207.578 20.5468 207.745 20.5154 207.745Z" fill="#263238"/>
<path d="M19.4081 208.983C19.3454 209.014 19.0895 208.586 18.5777 208.293C18.252 208.143 17.9171 208.014 17.575 207.907C17.7635 207.845 17.9643 207.828 18.1605 207.859C18.3567 207.89 18.5427 207.967 18.703 208.085C19.2671 208.424 19.4708 208.967 19.4081 208.983Z" fill="#263238"/>
<path d="M22.4005 206.262C22.0238 205.851 21.6189 205.467 21.1889 205.113C20.7119 204.824 20.2144 204.571 19.7004 204.355C20.2851 204.384 20.8495 204.578 21.3277 204.916C21.8059 205.254 22.178 205.72 22.4005 206.262Z" fill="#263238"/>
<path d="M23.3667 203.071C23.3249 203.128 22.7975 202.737 22.0402 202.523C21.2829 202.308 20.6301 202.34 20.6196 202.272C21.1002 202.096 21.6275 202.096 22.1081 202.272C22.6096 202.379 23.0561 202.663 23.3667 203.071Z" fill="#263238"/>
<path d="M24.1451 199.948C23.7174 199.682 23.2553 199.477 22.7716 199.337C22.2743 199.269 21.77 199.269 21.2727 199.337C21.2727 199.311 21.4137 199.206 21.6905 199.123C22.0605 199.023 22.4489 199.012 22.8238 199.091C23.2047 199.168 23.5624 199.332 23.8683 199.572C24.072 199.77 24.166 199.911 24.1451 199.948Z" fill="#263238"/>
<path d="M22.923 198.747C22.9176 198.608 22.9463 198.47 23.0065 198.344C23.1326 197.983 23.3297 197.651 23.5862 197.368C23.7541 197.141 23.9932 196.978 24.2652 196.903C24.3565 196.888 24.4502 196.901 24.5341 196.94C24.6179 196.979 24.688 197.043 24.7352 197.122C24.8126 197.285 24.8292 197.471 24.7822 197.645C24.6742 197.998 24.4446 198.303 24.134 198.503C23.8233 198.704 23.4517 198.788 23.0849 198.741C22.7229 198.691 22.3841 198.534 22.1117 198.29C21.8392 198.046 21.6453 197.727 21.5546 197.373C21.5339 197.284 21.5321 197.191 21.5492 197.101C21.5662 197.012 21.6019 196.926 21.6539 196.851C21.7155 196.776 21.8005 196.724 21.8952 196.703C21.9898 196.682 22.0888 196.694 22.1761 196.736C22.4211 196.855 22.6315 197.035 22.7872 197.258C23.0188 197.561 23.1956 197.902 23.3094 198.266C23.3641 198.395 23.3891 198.534 23.3825 198.674C23.2068 198.204 22.9602 197.763 22.6514 197.368C22.5186 197.175 22.3389 197.018 22.1291 196.913C22.0828 196.89 22.03 196.884 21.9796 196.896C21.9291 196.907 21.8842 196.935 21.8523 196.976C21.8211 197.027 21.8011 197.084 21.7939 197.144C21.7867 197.203 21.7924 197.264 21.8105 197.321C21.8975 197.624 22.0698 197.895 22.3069 198.103C22.544 198.31 22.8358 198.445 23.1475 198.491C23.4575 198.527 23.7707 198.457 24.0356 198.292C24.3005 198.127 24.5012 197.876 24.6046 197.582C24.6487 197.464 24.6487 197.334 24.6046 197.216C24.5809 197.171 24.5433 197.134 24.4973 197.112C24.4512 197.089 24.3992 197.082 24.3487 197.091C24.1204 197.154 23.9176 197.288 23.769 197.472C23.4121 197.842 23.1254 198.274 22.923 198.747Z" fill="#263238"/>
<g opacity="0.3">
<path d="M22.8288 192.777L22.5103 194.302L30.0674 196.516L30.715 194.375L23.1056 191.618L22.8288 192.777Z" fill="black"/>
</g>
<path d="M57.7315 195.576L57.0891 204.126C57.0891 204.126 65.5654 207.646 65.6019 209.239L48.9784 208.596L49.4275 195.232L57.7315 195.576Z" fill="#76BA03"/>
<g opacity="0.6">
<path d="M51.9763 203.207C51.8149 203.25 51.6751 203.351 51.5836 203.49C51.492 203.63 51.4552 203.799 51.4801 203.964C51.512 204.13 51.6071 204.277 51.7454 204.375C51.8838 204.472 52.0546 204.512 52.2217 204.486C52.3929 204.44 52.5411 204.333 52.6376 204.184C52.734 204.036 52.772 203.857 52.744 203.682C52.6877 203.515 52.5695 203.377 52.414 203.295C52.2584 203.214 52.0774 203.195 51.9084 203.243" fill="white"/>
</g>
<g opacity="0.6">
<path d="M48.9784 208.596L49.0776 207.249L64.9804 208.372C64.9804 208.372 65.7064 208.722 65.6019 209.239L48.9784 208.596Z" fill="white"/>
</g>
<path d="M57.3608 204.053C57.3608 204.131 56.9482 204.152 56.5408 204.397C56.1335 204.643 55.9037 204.977 55.8306 204.946C55.7574 204.914 55.8984 204.423 56.3998 204.157C56.9012 203.891 57.3921 203.98 57.3608 204.053Z" fill="#263238"/>
<path d="M59.079 204.841C59.079 204.919 58.7395 205.045 58.4471 205.363C58.1546 205.682 58.0658 206.053 57.9823 206.048C57.8987 206.042 57.8726 205.577 58.2382 205.175C58.6037 204.773 59.079 204.763 59.079 204.841Z" fill="#263238"/>
<path d="M60.0034 206.967C59.9303 206.967 59.8311 206.57 60.0557 206.137C60.2802 205.703 60.6719 205.536 60.7033 205.614C60.7346 205.693 60.4891 205.912 60.3116 206.272C60.134 206.633 60.0713 206.962 60.0034 206.967Z" fill="#263238"/>
<path d="M57.2928 202.089C57.2562 202.162 56.8854 202.032 56.4259 202.047C55.9663 202.063 55.6059 202.193 55.5641 202.12C55.5223 202.047 55.8775 201.77 56.4206 201.765C56.9638 201.76 57.3346 202.026 57.2928 202.089Z" fill="#263238"/>
<g opacity="0.3">
<path d="M57.6009 197.269L57.4913 198.794L49.3231 198.402L49.3753 196.642L57.6009 197.269Z" fill="black"/>
</g>
<path d="M57.392 200.36C57.1153 200.424 56.8265 200.411 56.5564 200.324C56.258 200.258 55.9687 200.156 55.6947 200.021C55.5337 199.941 55.3784 199.85 55.2298 199.749C55.137 199.696 55.054 199.627 54.9844 199.546C54.9357 199.484 54.9092 199.407 54.9092 199.329C54.9092 199.25 54.9357 199.174 54.9844 199.112C55.027 199.056 55.0825 199.011 55.1461 198.981C55.2098 198.951 55.2797 198.937 55.35 198.94C55.4547 198.942 55.5586 198.959 55.6581 198.992C55.838 199.042 56.0129 199.108 56.1804 199.19C56.4553 199.324 56.7074 199.5 56.9272 199.713C57.298 200.089 57.4181 200.397 57.392 200.413C57.3659 200.428 57.1779 200.172 56.7966 199.864C56.5721 199.685 56.3266 199.534 56.0655 199.415C55.9133 199.349 55.7561 199.295 55.5954 199.253C55.4231 199.196 55.2716 199.19 55.2246 199.253C55.1776 199.316 55.2246 199.295 55.2246 199.347C55.276 199.405 55.3359 199.454 55.4022 199.493C55.5389 199.593 55.6819 199.684 55.8304 199.765C56.0843 199.902 56.35 200.015 56.6243 200.104C56.886 200.171 57.1426 200.257 57.392 200.36Z" fill="#263238"/>
<path d="M57.2772 200.47C57.1297 200.227 57.0639 199.943 57.0891 199.66C57.0886 199.351 57.1398 199.044 57.2406 198.752C57.2996 198.579 57.3766 198.412 57.4704 198.255C57.5177 198.151 57.5901 198.059 57.6812 197.989C57.7723 197.919 57.8793 197.872 57.9927 197.853C58.0667 197.858 58.1379 197.883 58.198 197.927C58.2581 197.97 58.3046 198.03 58.3321 198.099C58.3714 198.197 58.3961 198.301 58.4052 198.407C58.4317 198.594 58.4317 198.784 58.4052 198.971C58.3447 199.28 58.2103 199.571 58.0135 199.817C57.6741 200.235 57.3294 200.339 57.3242 200.292C57.3189 200.245 57.5905 200.104 57.8464 199.697C57.9956 199.462 58.0951 199.199 58.1389 198.924C58.1624 198.765 58.1624 198.603 58.1389 198.443C58.1389 198.266 58.0606 198.12 57.9927 198.135C57.9248 198.151 57.7681 198.261 57.695 198.396C57.6057 198.537 57.5305 198.685 57.4704 198.84C57.368 199.105 57.3029 199.383 57.2772 199.666C57.251 200.151 57.3242 200.459 57.2772 200.47Z" fill="#263238"/>
<path d="M36.6688 86.0585L40.967 86.2987C41.27 87.5068 41.6771 88.6863 42.1838 89.824C45.6464 83.8128 48.3308 75.7648 48.9993 72.5267C48.9001 72.2029 48.7852 71.8478 48.6442 71.4457C48.5391 70.8425 48.5569 70.2243 48.6964 69.6282C48.8165 68.9075 49.015 67.9361 49.0777 67.4869C49.2605 66.1186 49.4798 65.9202 49.9603 66.0612C50.6079 66.2701 49.6939 69.8998 50.2214 69.9781C50.5087 70.0199 50.8586 68.7769 50.9578 67.7585C51.057 66.7401 51.5219 63.5804 51.8613 63.3872C52.3836 63.0791 52.7857 63.5648 52.6604 64.5832C52.535 65.6016 52.3731 68.6777 52.9163 68.7195C53.4594 68.7612 53.8929 63.5543 53.8929 63.5543C53.8929 63.5543 53.8094 62.4262 54.4152 62.4524C55.5433 62.4994 54.6606 67.9883 54.5666 68.5053C54.4987 68.8657 55.0889 68.9336 55.1359 68.5419C55.1829 68.1502 55.4597 63.3193 56.6087 63.3768C57.4861 63.4081 55.9245 67.8995 56.4207 68.9388C56.9168 69.9781 57.2563 65.4031 58.0971 65.4658C58.4105 65.4658 58.6194 65.5494 58.0658 68.1398C57.5077 70.1998 56.8365 72.2275 56.0551 74.2136C54.7233 81.3947 48.8792 104.369 39.7188 100.165C34.5902 97.8093 32.1982 86.1577 32.1982 86.1577L36.6688 86.0585Z" fill="#FFBE9D"/>
<path d="M56.0707 74.2086C56.0798 74.1546 56.0955 74.102 56.1177 74.0519C56.1542 73.937 56.2065 73.7855 56.2691 73.6028C56.4101 73.1849 56.6138 72.6052 56.8697 71.8689C57.1256 71.1325 57.439 70.1924 57.7523 69.1061C57.909 68.5838 58.0396 67.978 58.1597 67.3461C58.2172 67.0327 58.2798 66.7089 58.3164 66.3747C58.3295 66.2096 58.3295 66.0437 58.3164 65.8785C58.3164 65.7062 58.2798 65.5704 58.144 65.5652C58.0083 65.5599 57.909 65.6435 57.815 65.7897C57.7263 65.9442 57.6529 66.1068 57.5957 66.2754C57.4755 66.6201 57.3763 66.9857 57.2823 67.3617C57.1883 67.7378 57.0995 68.1242 56.9846 68.5159C56.9362 68.7324 56.8476 68.9379 56.7235 69.1218C56.6896 69.1638 56.6408 69.1911 56.5872 69.1979C56.5337 69.2047 56.4796 69.1905 56.4362 69.1583C56.3855 69.1111 56.3447 69.0543 56.3161 68.9912C56.2704 68.8843 56.2388 68.772 56.2221 68.6569C56.2057 67.7793 56.2933 66.9027 56.4833 66.0457C56.5616 65.607 56.6399 65.163 56.6974 64.7139C56.7277 64.4888 56.7452 64.2621 56.7496 64.035C56.7496 63.8313 56.7496 63.5493 56.6295 63.5127C56.5094 63.4761 56.3161 63.5963 56.2117 63.7843C56.09 63.9784 55.9935 64.1873 55.9244 64.4058C55.7777 64.8635 55.6642 65.3313 55.585 65.8054C55.5014 66.2911 55.4387 66.782 55.3813 67.2782C55.3813 67.5289 55.3343 67.8004 55.3082 68.0302L55.2768 68.4115C55.2811 68.4927 55.2679 68.5738 55.2382 68.6495C55.2085 68.7252 55.1629 68.7936 55.1045 68.8502C55.0289 68.9062 54.9374 68.9364 54.8434 68.9364C54.7493 68.9364 54.6578 68.9062 54.5822 68.8502C54.5401 68.8223 54.5041 68.7861 54.4763 68.7439C54.4485 68.7018 54.4294 68.6544 54.4203 68.6047C54.4123 68.5581 54.4123 68.5104 54.4203 68.4637V68.3697C54.4569 68.1138 54.4987 67.8475 54.5352 67.602C54.6083 67.0797 54.671 66.5575 54.7232 66.0352C54.7755 65.513 54.8068 64.9907 54.8172 64.4684C54.8434 63.9413 54.7906 63.4132 54.6606 62.9017C54.6309 62.7713 54.5524 62.6573 54.4412 62.5831C54.3879 62.567 54.331 62.5673 54.2779 62.5841C54.2247 62.6009 54.1779 62.6333 54.1435 62.6771C54.0035 62.9375 53.947 63.2347 53.9816 63.5284C53.8876 64.5729 53.7727 65.5704 53.6265 66.5627C53.5482 67.0849 53.4698 67.555 53.3445 68.0407C53.3133 68.1647 53.275 68.2867 53.2296 68.4063C53.188 68.5537 53.1023 68.6849 52.9841 68.7823C52.9302 68.8082 52.8692 68.8156 52.8107 68.8033C52.7521 68.7911 52.6993 68.7598 52.6603 68.7144C52.6097 68.6562 52.5707 68.5888 52.5454 68.5159C52.4991 68.3945 52.4658 68.2684 52.4462 68.1399C52.3385 67.1859 52.3298 66.2233 52.4201 65.2675C52.4805 64.8228 52.5032 64.3738 52.488 63.9253C52.4762 63.7347 52.3899 63.5565 52.2477 63.4291C52.2153 63.4068 52.1784 63.392 52.1395 63.3857C52.1007 63.3793 52.061 63.3817 52.0232 63.3926C51.9789 63.4032 51.9366 63.4208 51.8978 63.4448C51.8706 63.4629 51.8489 63.4882 51.8351 63.5179C51.6798 63.9128 51.5644 64.3222 51.4904 64.74C51.4069 65.1578 51.3338 65.5756 51.2659 65.9882C51.198 66.4008 51.1405 66.8029 51.0883 67.2051C51.0361 67.6072 51.0047 68.0041 50.9264 68.3958C50.8613 68.7828 50.7581 69.1624 50.6183 69.5291C50.5852 69.6217 50.5432 69.7109 50.4929 69.7955C50.4303 69.879 50.3989 69.9887 50.2318 70.0409C50.1893 70.0485 50.1455 70.0437 50.1057 70.027C50.0658 70.0103 50.0317 69.9825 50.0072 69.9469C49.9776 69.8962 49.9548 69.8417 49.9393 69.785C49.9201 69.6886 49.9079 69.5908 49.9028 69.4926C49.9028 68.7457 50.0072 68.0616 50.0438 67.4035C50.0752 67.0875 50.0752 66.7691 50.0438 66.453C50.0438 66.312 49.9811 66.1501 49.8976 66.1135C49.8423 66.0864 49.7816 66.0722 49.72 66.0722C49.6584 66.0722 49.5977 66.0864 49.5424 66.1135C49.3612 66.3116 49.2478 66.5622 49.2186 66.829C49.1559 67.1006 49.1298 67.3513 49.0776 67.6281C48.8948 68.6726 48.7016 69.5552 48.6128 70.2812C48.5663 70.6016 48.5663 70.927 48.6128 71.2474C48.6755 71.5085 48.7643 71.7435 48.8113 71.9263L48.9366 72.3546C48.9573 72.4007 48.9697 72.4503 48.9732 72.5008C48.9472 72.4568 48.9279 72.4093 48.9157 72.3598L48.7643 71.9472C48.7016 71.7592 48.6128 71.5451 48.5345 71.2578C48.4869 70.9305 48.4869 70.598 48.5345 70.2707C48.6128 69.5291 48.7904 68.6465 48.9575 67.6072C49.0045 67.3513 49.0306 67.0849 49.0933 66.7977C49.1194 66.6537 49.1578 66.5121 49.2082 66.3747C49.2518 66.2143 49.3473 66.0729 49.4797 65.9725C49.5604 65.9304 49.6499 65.9084 49.7409 65.9084C49.8318 65.9084 49.9214 65.9304 50.002 65.9725C50.2109 66.0927 50.2161 66.2911 50.2527 66.4426C50.2839 66.7709 50.2839 67.1014 50.2527 67.4296C50.2214 68.0981 50.1169 68.798 50.1326 69.5187C50.1372 69.6029 50.1477 69.6866 50.1639 69.7694C50.1639 69.8529 50.2266 69.8843 50.2161 69.8686C50.2057 69.8529 50.2997 69.7955 50.3363 69.7276C50.3787 69.6495 50.417 69.5694 50.4512 69.4873C50.5787 69.1309 50.6748 68.7639 50.7384 68.3906C50.8115 68.0146 50.8324 67.6177 50.8899 67.2155C50.9473 66.8134 50.9943 66.4008 51.0622 65.9882C51.1301 65.5756 51.198 65.1526 51.2815 64.7296C51.3561 64.2853 51.4805 63.8508 51.6524 63.4344C51.6851 63.3648 51.7378 63.3066 51.8038 63.2672C51.8613 63.2337 51.9227 63.2073 51.9866 63.1889C52.0571 63.1704 52.1307 63.1669 52.2027 63.1786C52.2746 63.1903 52.3434 63.2169 52.4044 63.2568C52.5065 63.3381 52.5911 63.4392 52.653 63.5541C52.715 63.669 52.753 63.7953 52.7648 63.9253C52.7961 64.1627 52.7961 64.4033 52.7648 64.6408C52.7648 64.8653 52.723 65.0951 52.7073 65.3249C52.6134 66.2574 52.6134 67.197 52.7073 68.1295C52.7259 68.2396 52.7538 68.3479 52.7909 68.4533C52.8076 68.4948 52.8305 68.5335 52.8588 68.5682C52.8588 68.6726 52.8588 68.5943 52.8588 68.6099C52.8588 68.6256 52.8588 68.61 52.8588 68.5734C52.913 68.5005 52.9553 68.4194 52.9841 68.3332C53.0207 68.2235 53.0572 68.1086 53.0886 67.9937C53.2035 67.5289 53.287 67.0379 53.3601 66.547C53.5064 65.56 53.616 64.552 53.7101 63.5284C53.669 63.1657 53.7459 62.7994 53.9294 62.4838C53.9975 62.3911 54.0943 62.3234 54.2048 62.2913C54.3153 62.2591 54.4333 62.2644 54.5404 62.3063C54.6334 62.3554 54.715 62.4236 54.7798 62.5064C54.8446 62.5892 54.8912 62.6847 54.9165 62.7868C55.058 63.3248 55.1162 63.8814 55.0888 64.4371C55.0888 64.9594 55.0418 65.5129 54.9896 66.0457C54.9374 66.5784 54.8747 67.0902 54.8016 67.6124C54.765 67.8736 54.7232 68.1347 54.6867 68.3854C54.6501 68.5525 54.6867 68.5577 54.6867 68.6047C54.7173 68.6237 54.7525 68.6337 54.7885 68.6337C54.8245 68.6337 54.8598 68.6237 54.8904 68.6047C54.9478 68.5682 54.953 68.4898 54.9635 68.3488L55 67.9676C55 67.7169 55.0523 67.4453 55.0732 67.2155C55.1306 66.6933 55.1985 66.2128 55.2821 65.7271C55.3641 65.2389 55.481 64.7571 55.632 64.2856C55.7102 64.0472 55.8172 63.8192 55.9505 63.6067C56.0245 63.4917 56.1203 63.3923 56.2326 63.3142C56.2935 63.2603 56.3689 63.2253 56.4495 63.2136C56.53 63.2019 56.6123 63.214 56.686 63.2484C56.7598 63.2828 56.822 63.338 56.8648 63.4072C56.9076 63.4764 56.9293 63.5567 56.9272 63.638C56.9461 63.7607 56.9548 63.8847 56.9533 64.0088C56.9458 64.2449 56.9249 64.4803 56.8906 64.7139C56.8332 65.1735 56.7496 65.6174 56.6713 66.0561C56.4818 66.8886 56.3907 67.7405 56.3997 68.5943C56.409 68.6865 56.4337 68.7766 56.4728 68.8606C56.4862 68.8924 56.5038 68.9223 56.525 68.9494C56.525 68.9494 56.525 68.9494 56.525 68.9233C56.6242 68.762 56.6965 68.5856 56.7392 68.401C56.8541 68.0198 56.9428 67.6333 57.0421 67.2573C57.1413 66.8813 57.2405 66.5105 57.3711 66.1553C57.4339 65.9738 57.5144 65.7989 57.6113 65.6331C57.6612 65.5438 57.7287 65.4656 57.8098 65.4033C57.8556 65.366 57.9091 65.3392 57.9665 65.3249C58.0217 65.3144 58.0784 65.3144 58.1336 65.3249C58.1938 65.3306 58.2514 65.3526 58.3002 65.3885C58.3489 65.4243 58.387 65.4728 58.4104 65.5286C58.446 65.6203 58.4654 65.7175 58.4678 65.8159C58.4732 65.9905 58.4627 66.1653 58.4365 66.3381C58.3999 66.6828 58.3321 67.0066 58.2694 67.3252C58.1569 67.921 58.0122 68.5103 57.8359 69.0904C57.5121 70.1767 57.1831 71.0959 56.9115 71.8427C56.6399 72.5896 56.3892 73.1745 56.2639 73.561C56.1908 73.7438 56.1281 73.89 56.0863 74.0049C56.0446 74.1198 56.0759 74.2138 56.0707 74.2086Z" fill="#EB996E"/>
<path d="M32.1669 86.5806C32.9973 89.5157 34.6215 94.049 36.3449 98.8329C36.4009 98.9867 36.501 99.1206 36.6329 99.2177C36.7647 99.3148 36.9222 99.3708 37.0857 99.3786C37.2493 99.3864 37.4114 99.3457 37.5519 99.2616C37.6923 99.1775 37.8048 99.0538 37.8752 98.906L42.1577 89.8448C42.1577 89.8448 41.1132 82.4026 41.2124 82.6637C41.3116 82.9248 32.3758 83.6299 32.3758 83.6299L32.1669 86.5806Z" fill="#76BA03"/>
<path d="M43.7506 87.2752C43.7506 87.2752 43.6357 87.1864 43.4216 87.1289C43.2765 87.0845 43.1219 87.0815 42.9752 87.1203C42.8285 87.159 42.6955 87.238 42.5912 87.3483L42.4816 87.4736L42.4137 87.3117C42.1839 86.7268 41.8914 85.9695 41.5989 85.1339C41.1412 83.987 40.7659 82.809 40.4761 81.6086C41.022 82.7176 41.4829 83.8664 41.8548 85.0451C42.1578 85.8755 42.4189 86.6432 42.6121 87.2386L42.4345 87.2073C42.586 87.0528 42.7882 86.9583 43.0038 86.9409C43.1607 86.9266 43.3187 86.9517 43.4634 87.014C43.6984 87.1028 43.7611 87.2647 43.7506 87.2752Z" fill="#263238"/>
<path d="M37.6768 95.8927C37.8392 95.4442 38.0475 95.0137 38.2982 94.6079C38.7108 93.835 39.2958 92.7696 39.9643 91.6049C40.6327 90.4403 41.2438 89.3906 41.6982 88.6385C41.9228 88.2176 42.1869 87.8189 42.4868 87.4478C42.3211 87.8949 42.113 88.3251 41.8653 88.7325C41.4527 89.5107 40.8625 90.5709 40.1993 91.7407C39.536 92.9106 38.9197 93.9551 38.4654 94.7072C38.2394 95.1257 37.9754 95.5225 37.6768 95.8927Z" fill="#263238"/>
<path d="M34.8253 94.5298C35.0573 94.3326 35.3073 94.1577 35.5721 94.0075C36.0578 93.6941 36.7629 93.2554 37.6194 92.7332L37.5724 92.8742C37.0971 91.7618 36.5278 90.4613 35.9429 89.0617C35.2013 87.3017 34.538 85.6827 34.0523 84.4763L34.1986 84.5233C33.5196 84.8941 32.966 85.1865 32.5848 85.385C32.3903 85.5012 32.1836 85.5958 31.9685 85.667C32.1395 85.5188 32.327 85.3909 32.5273 85.2858C32.8981 85.056 33.4308 84.7374 34.0941 84.3509L34.1881 84.2935L34.2351 84.3979C34.7574 85.5887 35.4468 87.192 36.1884 88.9572C36.7733 90.3621 37.3112 91.6678 37.7551 92.7854L37.7917 92.8794L37.7081 92.9264C36.8412 93.4487 36.1414 93.8404 35.6191 94.1172C35.369 94.281 35.1031 94.4192 34.8253 94.5298Z" fill="#76BA03"/>
<path d="M58.0606 197.728C58.8258 197.706 59.555 197.399 60.1049 196.866C60.6548 196.334 60.9856 195.615 61.0323 194.851C61.9253 180.394 65.9467 114.637 65.1424 112.574C64.2337 110.255 61.847 102.191 61.847 102.191L40.5231 101.204C40.5231 101.204 35.217 109.56 34.4545 112.788C33.7651 115.665 14.4467 176.54 12.0443 189.466C11.9254 190.108 12.0478 190.771 12.3881 191.328C12.7284 191.885 13.2625 192.297 13.8879 192.485L58.0606 197.728Z" fill="#263238"/>
<path d="M44.7325 101.658C44.7325 101.658 44.7063 101.737 44.6384 101.888L44.3355 102.546L43.1448 105.064C42.9098 105.622 42.6539 106.244 42.3666 106.918C42.0794 107.591 41.766 108.333 41.484 109.142C41.202 109.952 40.8573 110.808 40.5387 111.728C40.2201 112.647 39.9224 113.629 39.5882 114.658L38.6429 117.916C38.3348 119.055 38.0423 120.246 37.7185 121.478C37.3947 122.711 37.1388 123.996 36.8307 125.317C36.5225 126.638 36.2457 128.001 35.9794 129.406C35.4049 132.205 34.8409 135.151 34.2455 138.211C33.6501 141.272 33.0129 144.426 32.2661 147.643C31.9058 149.252 31.4879 150.819 31.1015 152.386C30.715 153.952 30.2606 155.467 29.801 156.955C28.8975 159.937 27.9052 162.779 26.8921 165.452C24.8448 170.806 22.714 175.511 20.8861 179.423C19.0582 183.335 17.4548 186.458 16.3581 188.615L15.089 191.106C14.948 191.377 14.8331 191.592 14.7495 191.743C14.714 191.817 14.6739 191.888 14.6294 191.957C14.6577 191.88 14.6908 191.805 14.7286 191.733C14.8017 191.576 14.9062 191.357 15.042 191.08C15.3292 190.495 15.7418 189.654 16.2745 188.578C17.319 186.411 18.8858 183.272 20.7189 179.35C22.5521 175.428 24.6359 170.722 26.6675 165.374C27.6702 162.7 28.6573 159.864 29.5608 156.887C30.0152 155.404 30.4225 153.874 30.8508 152.328C31.279 150.782 31.6551 149.195 32.005 147.581C32.7518 144.369 33.3785 141.204 33.9896 138.154C34.6006 135.104 35.1542 132.153 35.7391 129.354C36.0159 127.949 36.3293 126.586 36.6113 125.265C36.8933 123.943 37.2224 122.653 37.5096 121.421C37.7968 120.188 38.1363 118.997 38.4497 117.859C38.763 116.72 39.1077 115.639 39.4158 114.6L40.3768 111.649C40.7006 110.73 41.0401 109.874 41.343 109.069C41.6459 108.265 41.954 107.503 42.2517 106.85C42.5494 106.197 42.8105 105.555 43.0508 105.001C43.573 103.909 44.0013 103.069 44.2833 102.499L44.6123 101.857L44.7325 101.658Z" fill="#455A64"/>
<path d="M25.905 193.769C25.905 193.769 25.905 193.691 25.9573 193.534C26.0095 193.378 26.0669 193.132 26.1453 192.84L26.8869 190.176C27.5293 187.847 28.4537 184.504 29.6026 180.379C30.7516 176.253 32.0729 171.307 33.5091 165.818C34.2194 163.071 34.961 160.188 35.734 157.201C36.5069 154.213 37.2537 151.101 38.0476 147.925C38.8414 144.75 39.5621 141.658 40.2881 138.629C41.014 135.6 41.6616 132.722 42.3092 129.96C43.5679 124.429 44.675 119.436 45.5786 115.242C46.4821 111.049 47.1976 107.659 47.7042 105.319C47.9496 104.155 48.1429 103.23 48.2786 102.614C48.3465 102.316 48.3988 102.092 48.4353 101.914C48.4719 101.737 48.498 101.674 48.498 101.674C48.4905 101.757 48.4783 101.838 48.4614 101.92C48.4301 102.087 48.3883 102.322 48.3309 102.625C48.2107 103.257 48.0332 104.191 47.8086 105.34L46.9469 109.612C46.597 111.284 46.2053 113.185 45.7666 115.284C44.8892 119.462 43.8029 124.476 42.5495 130.017C41.9175 132.78 41.2595 135.689 40.544 138.692C39.8285 141.695 39.0764 144.808 38.3139 147.993C37.5514 151.179 36.7471 154.26 35.9899 157.263C35.2326 160.266 34.4701 163.139 33.7546 165.881C32.2975 171.37 30.9501 176.326 29.7906 180.431L28.2239 186.003C27.7486 187.638 27.336 189.048 27.0018 190.181C26.6675 191.315 26.396 192.213 26.2132 192.835C26.1244 193.127 26.0513 193.357 26.0043 193.519C25.9573 193.681 25.905 193.769 25.905 193.769Z" fill="#455A64"/>
<path d="M51.3182 101.726C51.3182 101.726 51.3182 101.805 51.3547 101.967L51.4435 102.687C51.4801 103.006 51.5271 103.398 51.5793 103.852C51.6315 104.306 51.6472 104.855 51.6837 105.455C51.6837 105.758 51.7203 106.077 51.736 106.411C51.7516 106.745 51.736 107.1 51.736 107.456V108.604C51.736 109.001 51.6994 109.419 51.6837 109.847C51.6681 110.276 51.642 110.72 51.6158 111.174C51.5897 111.628 51.5323 112.104 51.4853 112.589C51.4174 113.561 51.2503 114.574 51.1197 115.65C50.7959 117.786 50.3676 120.11 49.8193 122.591C49.2709 125.071 48.6285 127.704 47.96 130.477C47.2915 133.25 46.5969 136.164 46.0224 139.209C45.448 142.254 44.9779 145.429 44.5497 148.693C44.1214 151.957 43.8133 155.138 43.4477 158.224C43.0821 161.311 42.7688 164.288 42.4032 167.103L41.8391 171.239C41.6198 172.571 41.4266 173.85 41.2072 175.125C40.9879 176.399 40.7633 177.579 40.5178 178.734C40.2724 179.888 40.0269 180.99 39.7814 182.039C39.536 183.089 39.2592 184.081 38.998 185.022C38.7369 185.962 38.4444 186.829 38.1938 187.633C38.0632 188.04 37.9483 188.437 37.8125 188.813C37.6767 189.189 37.5409 189.55 37.4156 189.894C37.1597 190.578 36.9247 191.21 36.7105 191.774C36.251 192.892 35.8488 193.738 35.5981 194.323L35.2952 194.981C35.2273 195.127 35.1855 195.2 35.1855 195.2C35.1855 195.2 35.1855 195.117 35.2691 194.965C35.3527 194.814 35.431 194.584 35.5459 194.297C35.7861 193.712 36.1674 192.855 36.5904 191.738L37.2641 189.847L37.6558 188.771C37.7864 188.395 37.8961 187.993 38.0214 187.586C38.2669 186.766 38.5437 185.894 38.8048 184.975L39.5673 181.998L40.288 178.692C40.523 177.538 40.7267 176.331 40.9617 175.083C41.1968 173.835 41.3639 172.534 41.5728 171.203C41.7817 169.871 41.9384 168.487 42.1264 167.071C42.4763 164.241 42.8158 161.269 43.1709 158.193C43.526 155.117 43.8551 151.926 44.2729 148.641C44.6907 145.356 45.1816 142.191 45.7561 139.136C46.3306 136.081 47.0356 133.166 47.7093 130.398C48.3831 127.63 49.0411 124.993 49.5947 122.523C50.1483 120.052 50.587 117.728 50.9265 115.598C51.0622 114.553 51.2346 113.509 51.3077 112.548C51.3599 112.067 51.4017 111.597 51.4487 111.143C51.4957 110.688 51.5009 110.244 51.5271 109.816C51.5532 109.388 51.5845 108.981 51.5897 108.578C51.5949 108.176 51.5897 107.8 51.5897 107.435C51.5897 107.069 51.5897 106.719 51.5897 106.39C51.5897 106.061 51.5584 105.742 51.5479 105.44C51.5166 104.839 51.5166 104.301 51.4696 103.841C51.4226 103.382 51.3913 102.99 51.3599 102.672C51.3286 102.353 51.3129 102.123 51.2973 101.951C51.2993 101.876 51.3063 101.801 51.3182 101.726Z" fill="#455A64"/>
<path d="M48.989 197.107C48.9652 197.028 48.946 196.948 48.9315 196.867C48.9002 196.694 48.8532 196.459 48.7957 196.156C48.7383 195.853 48.6704 195.451 48.5868 194.992C48.5033 194.532 48.3936 194.01 48.3414 193.425C48.2892 192.84 48.1951 192.156 48.1064 191.425C48.0176 190.693 48.0019 189.889 47.9392 189.033C47.9392 188.604 47.887 188.155 47.8713 187.701C47.8557 187.247 47.8713 186.766 47.8713 186.275C47.8713 185.784 47.8713 185.288 47.8713 184.771C47.8713 184.254 47.9131 183.727 47.9288 183.204C47.9445 182.682 47.9758 182.108 47.9967 181.543C48.0176 180.979 48.0907 180.4 48.1325 179.81C48.2108 178.629 48.3623 177.412 48.5085 176.154C48.6547 174.895 48.8636 173.589 49.0308 172.247C49.1979 170.905 49.4695 169.532 49.741 168.127C50.7856 162.491 52.1957 156.365 53.5013 149.9C54.7262 143.821 55.6413 137.683 56.2432 131.511C56.8072 125.818 57.0213 120.674 57.0945 116.365C57.0945 114.203 57.0945 112.245 57.0945 110.532C57.0945 108.819 57.0213 107.336 56.9691 106.124C56.9169 104.912 56.8699 103.977 56.8438 103.34C56.8438 103.032 56.8438 102.792 56.8438 102.62C56.8438 102.447 56.8438 102.369 56.8438 102.369C56.8438 102.369 56.8438 102.452 56.8438 102.614C56.8438 102.776 56.8751 103.032 56.9012 103.34C56.943 103.972 57.0213 104.907 57.0736 106.119C57.1258 107.33 57.1989 108.808 57.2459 110.527C57.2929 112.245 57.3086 114.182 57.2981 116.365C57.2511 120.695 57.0527 125.85 56.5043 131.548C55.9133 137.73 55.0034 143.879 53.7781 149.968C52.4725 156.444 51.0362 162.565 49.9969 168.189C49.7254 169.589 49.5112 170.968 49.2762 172.299C49.0412 173.631 48.8636 174.937 48.7279 176.201C48.5921 177.465 48.4197 178.676 48.3414 179.857C48.2892 180.442 48.2421 181.016 48.1951 181.58C48.1481 182.144 48.1429 182.698 48.1168 183.236C48.0907 183.774 48.075 184.306 48.0489 184.802V187.722C48.0489 188.176 48.0907 188.62 48.1116 189.048C48.1638 189.905 48.1638 190.709 48.2526 191.435C48.3414 192.161 48.3988 192.835 48.4615 193.441C48.5242 194.046 48.613 194.569 48.6808 195.007L48.8689 196.172C48.9159 196.475 48.9472 196.694 48.9785 196.887C49.0099 197.081 48.989 197.107 48.989 197.107Z" fill="#455A64"/>
<path d="M60.6927 102.139C60.6927 102.139 60.7188 102.217 60.7658 102.374L60.9695 103.063L61.2881 104.197C61.4365 104.712 61.5585 105.235 61.6537 105.763C61.7686 106.354 61.9305 107.006 62.0454 107.732C62.1603 108.458 62.2595 109.247 62.3796 110.098C62.4997 110.949 62.5206 111.863 62.599 112.835C62.6773 113.806 62.6773 114.83 62.6564 115.911C62.6564 118.068 62.4788 120.423 62.202 122.946C61.9252 125.468 61.4918 128.142 60.9904 130.942L59.3505 139.726C58.776 142.771 58.2746 145.936 57.8203 149.189C57.3659 152.443 56.9951 155.624 56.6922 158.705C56.3893 161.786 56.1699 164.768 55.9924 167.609C55.8148 170.45 55.7051 173.151 55.6529 175.684C55.6007 178.216 55.5693 180.572 55.5798 182.724C55.5902 184.875 55.6216 186.823 55.6738 188.531C55.726 190.239 55.7887 191.712 55.8357 192.913C55.8827 194.114 55.9401 195.038 55.9715 195.681C55.9715 195.991 55.9819 196.231 56.0028 196.402C56.0028 196.569 56.0028 196.652 56.0028 196.652C56.0028 196.652 56.0028 196.569 55.9715 196.407L55.914 195.686C55.8723 195.054 55.7991 194.119 55.7312 192.918C55.6634 191.717 55.5746 190.244 55.5223 188.536C55.4701 186.829 55.4127 184.881 55.3866 182.724C55.3604 180.567 55.3866 178.211 55.4283 175.678C55.4701 173.145 55.5902 170.456 55.7417 167.594C55.8931 164.732 56.1177 161.765 56.4259 158.679C56.734 155.592 57.0891 152.412 57.5539 149.148C58.0187 145.883 58.5097 142.724 59.0894 139.679L60.7449 130.9C61.2672 128.1 61.6693 125.426 61.9775 122.92C62.2856 120.413 62.4318 118.057 62.4632 115.906C62.4632 114.83 62.4318 113.817 62.4266 112.84C62.4214 111.863 62.2908 110.965 62.2282 110.114C62.1655 109.263 62.014 108.479 61.92 107.753C61.826 107.027 61.6589 106.38 61.5544 105.784C61.45 105.189 61.3403 104.672 61.2097 104.217C61.0792 103.763 60.9956 103.398 60.9173 103.084C60.8389 102.771 60.7815 102.562 60.7397 102.384C60.6979 102.207 60.6927 102.139 60.6927 102.139Z" fill="#455A64"/>
<path d="M158.963 193.68L93.2474 193.377C89.4526 193.359 85.8202 191.835 83.1486 189.14C80.477 186.445 78.9848 182.8 79.0001 179.005L79.6947 14.2526C79.7127 10.4555 81.238 6.82099 83.9352 4.14827C86.6324 1.47556 90.2806 -0.0165222 94.0778 0.000138032L159.794 0.30305C161.673 0.311262 163.532 0.689537 165.265 1.41627C166.998 2.14301 168.571 3.20398 169.894 4.5386C171.217 5.87322 172.264 7.45536 172.976 9.19468C173.687 10.934 174.049 12.7964 174.041 14.6756L173.346 179.423C173.338 181.303 172.96 183.164 172.232 184.898C171.505 186.632 170.443 188.206 169.108 189.53C167.772 190.854 166.189 191.902 164.448 192.614C162.708 193.326 160.844 193.688 158.963 193.68Z" fill="#263238"/>
<path d="M159.136 4.92495L146.392 4.86228C145.553 4.87875 144.755 5.2272 144.173 5.83123C143.59 6.43526 143.271 7.2456 143.285 8.08463V10.393C143.293 10.8087 143.218 11.2217 143.066 11.6086C142.914 11.9955 142.687 12.3487 142.399 12.6479C142.11 12.9471 141.766 13.1866 141.384 13.3526C141.003 13.5186 140.593 13.6079 140.178 13.6154L115.344 13.5005C114.505 13.4772 113.71 13.1222 113.132 12.5132C112.554 11.9043 112.242 11.0911 112.263 10.252V7.93839C112.284 7.09931 111.971 6.28613 111.394 5.67717C110.816 5.06821 110.02 4.71318 109.181 4.68994H104.7L93.5502 4.64293C92.2334 4.63675 90.9283 4.88999 89.7093 5.38821C88.4904 5.88642 87.3815 6.61985 86.446 7.54662C85.5105 8.47338 84.7667 9.57534 84.2571 10.7896C83.7475 12.0038 83.482 13.3065 83.4758 14.6233L82.7969 175.432C82.7942 176.75 83.051 178.054 83.5527 179.272C84.0544 180.49 84.7912 181.598 85.7209 182.531C86.6507 183.464 87.7552 184.205 88.9713 184.711C90.1874 185.217 91.4914 185.479 92.8086 185.481L158.394 185.784C159.711 185.79 161.015 185.536 162.234 185.038C163.453 184.54 164.561 183.806 165.496 182.88C166.431 181.953 167.175 180.851 167.684 179.637C168.193 178.422 168.458 177.12 168.463 175.803L169.137 15.015C169.146 13.6949 168.894 12.3861 168.396 11.1637C167.897 9.94125 167.162 8.82931 166.233 7.89174C165.304 6.95417 164.198 6.20943 162.98 5.7003C161.762 5.19117 160.456 4.92768 159.136 4.92495Z" fill="#FAFAFA"/>
<path d="M91.9938 22.0186C91.9226 22.0165 91.8551 21.9865 91.8058 21.9351L90.8083 20.8906C90.7839 20.867 90.7648 20.8385 90.7522 20.807C90.7396 20.7755 90.7338 20.7417 90.7352 20.7078C90.7354 20.6736 90.7424 20.6399 90.7559 20.6085C90.7693 20.5771 90.7889 20.5487 90.8135 20.525L91.8163 19.5692C91.8401 19.5449 91.8685 19.5256 91.8999 19.5124C91.9313 19.4992 91.965 19.4924 91.9991 19.4924C92.0331 19.4924 92.0668 19.4992 92.0982 19.5124C92.1296 19.5256 92.158 19.5449 92.1819 19.5692C92.2063 19.5935 92.2258 19.6224 92.239 19.6542C92.2523 19.686 92.2591 19.7202 92.2591 19.7546C92.2591 19.7891 92.2523 19.8233 92.239 19.8551C92.2258 19.8869 92.2063 19.9158 92.1819 19.94L91.3671 20.713L92.1871 21.5695C92.2116 21.5938 92.231 21.6227 92.2442 21.6545C92.2575 21.6863 92.2643 21.7204 92.2643 21.7549C92.2643 21.7894 92.2575 21.8235 92.2442 21.8553C92.231 21.8871 92.2116 21.916 92.1871 21.9403C92.1616 21.9654 92.1314 21.9853 92.0983 21.9988C92.0651 22.0122 92.0296 22.019 91.9938 22.0186Z" fill="#263238"/>
<path d="M153.923 157.916H99.7024C95.0528 157.916 91.2836 161.685 91.2836 166.335V167.844C91.2836 172.494 95.0528 176.263 99.7024 176.263H153.923C158.573 176.263 162.342 172.494 162.342 167.844V166.335C162.342 161.685 158.573 157.916 153.923 157.916Z" fill="#76BA03"/>
<path d="M118.363 164.961H120.013C120.288 164.947 120.563 164.989 120.822 165.085C121.08 165.181 121.316 165.328 121.516 165.518C121.715 165.707 121.874 165.936 121.983 166.189C122.092 166.442 122.148 166.715 122.148 166.99C122.148 167.266 122.092 167.538 121.983 167.791C121.874 168.044 121.715 168.273 121.516 168.463C121.316 168.652 121.08 168.8 120.822 168.895C120.563 168.991 120.288 169.033 120.013 169.019H118.363V164.961ZM119.992 168.648C120.218 168.661 120.444 168.627 120.656 168.55C120.868 168.472 121.062 168.352 121.226 168.197C121.39 168.042 121.521 167.855 121.611 167.647C121.7 167.44 121.746 167.216 121.746 166.99C121.746 166.764 121.7 166.541 121.611 166.333C121.521 166.126 121.39 165.938 121.226 165.783C121.062 165.628 120.868 165.508 120.656 165.43C120.444 165.353 120.218 165.319 119.992 165.332H118.791V168.648H119.992Z" fill="#FAFAFA"/>
<path d="M122.786 166.993C122.773 166.569 122.886 166.151 123.112 165.791C123.337 165.432 123.665 165.149 124.052 164.977C124.44 164.805 124.87 164.753 125.288 164.827C125.705 164.901 126.091 165.097 126.396 165.392C126.701 165.687 126.911 166.066 127 166.48C127.088 166.895 127.051 167.327 126.893 167.72C126.735 168.114 126.462 168.451 126.111 168.689C125.76 168.927 125.346 169.054 124.922 169.056C124.644 169.069 124.367 169.026 124.106 168.928C123.846 168.83 123.608 168.68 123.408 168.486C123.208 168.293 123.049 168.061 122.942 167.804C122.835 167.547 122.782 167.271 122.786 166.993ZM126.62 166.993C126.625 166.653 126.529 166.32 126.344 166.036C126.159 165.751 125.893 165.528 125.581 165.395C125.269 165.262 124.924 165.225 124.591 165.289C124.258 165.353 123.951 165.515 123.71 165.753C123.469 165.992 123.305 166.297 123.238 166.63C123.171 166.963 123.205 167.308 123.335 167.621C123.465 167.935 123.685 168.202 123.968 168.39C124.251 168.577 124.583 168.676 124.922 168.674C125.146 168.682 125.369 168.644 125.577 168.563C125.786 168.481 125.975 168.358 126.134 168.2C126.293 168.043 126.419 167.854 126.502 167.647C126.585 167.439 126.625 167.216 126.62 166.993Z" fill="#FAFAFA"/>
<path d="M131.393 164.961V169.019H131.043L128.432 165.729V169.019H127.998V164.961H128.354L130.965 168.251V164.961H131.393Z" fill="#FAFAFA"/>
<path d="M135.582 168.648V169.019H132.714V164.961H135.493V165.332H133.143V166.773H135.232V167.139H133.143V168.648H135.582Z" fill="#FAFAFA"/>
<path d="M99.812 102.755C99.812 103.491 99.2898 103.94 98.3967 103.94H97.4619V105.037H97.0911V101.564H98.3967C99.2793 101.559 99.812 102.003 99.812 102.755ZM99.4465 102.755C99.4465 102.196 99.0809 101.877 98.4019 101.877H97.4775V103.616H98.4019C99.0757 103.611 99.4465 103.277 99.4465 102.755Z" fill="#263238"/>
<path d="M102.94 102.421V105.032H102.601V104.557C102.506 104.721 102.369 104.856 102.203 104.948C102.038 105.04 101.85 105.085 101.661 105.079C101.511 105.093 101.36 105.074 101.218 105.022C101.076 104.97 100.948 104.888 100.843 104.78C100.737 104.672 100.657 104.543 100.608 104.4C100.559 104.258 100.542 104.106 100.559 103.956V102.442H100.914V103.92C100.914 104.478 101.201 104.76 101.697 104.76C101.821 104.767 101.945 104.746 102.059 104.699C102.174 104.653 102.278 104.582 102.362 104.491C102.447 104.401 102.51 104.293 102.549 104.175C102.587 104.058 102.6 103.933 102.585 103.81V102.442L102.94 102.421Z" fill="#263238"/>
<path d="M105.244 102.4V102.755H105.16C105.036 102.748 104.911 102.769 104.796 102.816C104.68 102.863 104.577 102.935 104.492 103.027C104.408 103.119 104.345 103.228 104.308 103.347C104.271 103.466 104.26 103.592 104.277 103.716V105.047H103.927V102.436H104.262V102.958C104.349 102.776 104.49 102.625 104.665 102.526C104.841 102.426 105.043 102.382 105.244 102.4Z" fill="#263238"/>
<path d="M105.588 103.726C105.583 103.549 105.615 103.372 105.681 103.208C105.747 103.043 105.846 102.894 105.973 102.769C106.099 102.645 106.25 102.548 106.416 102.484C106.581 102.42 106.758 102.392 106.936 102.4C107.141 102.384 107.346 102.425 107.53 102.517C107.714 102.609 107.87 102.749 107.98 102.922L107.714 103.1C107.63 102.977 107.517 102.877 107.385 102.81C107.252 102.742 107.105 102.709 106.957 102.713C106.726 102.766 106.52 102.895 106.372 103.08C106.225 103.265 106.144 103.495 106.144 103.731C106.144 103.968 106.225 104.198 106.372 104.383C106.52 104.568 106.726 104.697 106.957 104.75C107.105 104.755 107.252 104.723 107.384 104.656C107.516 104.589 107.63 104.491 107.714 104.369L107.98 104.546C107.868 104.718 107.712 104.857 107.529 104.948C107.345 105.04 107.14 105.082 106.936 105.068C106.757 105.076 106.579 105.046 106.413 104.981C106.246 104.916 106.095 104.818 105.969 104.692C105.842 104.566 105.743 104.415 105.677 104.249C105.612 104.083 105.582 103.905 105.588 103.726Z" fill="#263238"/>
<path d="M111.015 103.517V105.032H110.66V103.554C110.676 103.445 110.667 103.334 110.634 103.229C110.601 103.123 110.545 103.027 110.47 102.947C110.394 102.866 110.302 102.804 110.199 102.765C110.096 102.725 109.986 102.709 109.876 102.718C109.751 102.709 109.626 102.728 109.508 102.772C109.391 102.817 109.285 102.887 109.198 102.977C109.111 103.067 109.045 103.175 109.004 103.294C108.963 103.413 108.949 103.539 108.962 103.663V105.032H108.607V101.35H108.962V102.875C109.07 102.718 109.217 102.592 109.388 102.509C109.559 102.425 109.749 102.388 109.939 102.4C110.087 102.388 110.235 102.409 110.374 102.461C110.513 102.514 110.638 102.597 110.741 102.704C110.844 102.811 110.922 102.939 110.969 103.08C111.017 103.22 111.032 103.37 111.015 103.517Z" fill="#263238"/>
<path d="M113.944 103.413V105.032H113.605V104.625C113.508 104.771 113.373 104.888 113.215 104.964C113.057 105.04 112.882 105.073 112.707 105.058C112.117 105.058 111.751 104.75 111.751 104.296C111.751 103.841 112.012 103.559 112.759 103.559H113.589V103.397C113.589 102.953 113.339 102.708 112.848 102.708C112.531 102.705 112.224 102.814 111.981 103.016L111.824 102.755C112.121 102.52 112.49 102.394 112.869 102.4C113.01 102.377 113.154 102.386 113.291 102.428C113.428 102.47 113.553 102.542 113.657 102.64C113.761 102.738 113.841 102.859 113.891 102.993C113.941 103.127 113.959 103.271 113.944 103.413ZM113.589 104.249V103.799H112.769C112.247 103.799 112.101 103.998 112.101 104.264C112.101 104.531 112.341 104.76 112.759 104.76C112.933 104.771 113.107 104.728 113.255 104.636C113.404 104.545 113.521 104.409 113.589 104.249Z" fill="#263238"/>
<path d="M114.54 104.734L114.696 104.457C114.968 104.649 115.293 104.751 115.626 104.75C116.122 104.75 116.326 104.577 116.326 104.321C116.326 103.642 114.634 104.175 114.634 103.146C114.634 102.718 114.999 102.399 115.678 102.399C116.002 102.394 116.32 102.479 116.598 102.645L116.446 102.927C116.22 102.774 115.951 102.696 115.678 102.702C115.203 102.702 114.994 102.885 114.994 103.136C114.994 103.841 116.686 103.308 116.686 104.311C116.686 104.765 116.289 105.058 115.61 105.058C115.228 105.069 114.852 104.956 114.54 104.734Z" fill="#263238"/>
<path d="M119.601 103.836H117.418C117.425 103.964 117.459 104.09 117.516 104.206C117.573 104.321 117.652 104.424 117.749 104.509C117.847 104.594 117.96 104.658 118.082 104.698C118.204 104.739 118.334 104.755 118.462 104.745C118.612 104.748 118.761 104.719 118.899 104.659C119.037 104.6 119.161 104.511 119.261 104.4L119.46 104.63C119.272 104.826 119.031 104.963 118.766 105.023C118.502 105.083 118.225 105.064 117.971 104.967C117.717 104.871 117.498 104.702 117.34 104.481C117.182 104.26 117.093 103.998 117.083 103.726C117.074 103.554 117.1 103.382 117.16 103.22C117.22 103.058 117.313 102.911 117.432 102.786C117.552 102.662 117.696 102.563 117.855 102.497C118.014 102.43 118.185 102.397 118.358 102.4C118.53 102.396 118.701 102.429 118.86 102.495C119.019 102.562 119.162 102.66 119.281 102.785C119.4 102.91 119.492 103.058 119.55 103.22C119.609 103.382 119.633 103.554 119.621 103.726C119.606 103.758 119.601 103.799 119.601 103.836ZM117.418 103.569H119.272C119.254 103.336 119.149 103.117 118.977 102.958C118.805 102.798 118.579 102.71 118.345 102.71C118.11 102.71 117.884 102.798 117.712 102.958C117.54 103.117 117.435 103.336 117.418 103.569Z" fill="#263238"/>
<path d="M125.46 102.421L124.473 105.032H124.144L123.324 102.891L122.499 105.032H122.165L121.183 102.421H121.533L122.348 104.64L123.188 102.421H123.491L124.327 104.64L125.157 102.421H125.46Z" fill="#263238"/>
<path d="M127.884 103.413V105.032H127.549V104.625C127.451 104.77 127.316 104.886 127.159 104.962C127.001 105.038 126.826 105.071 126.651 105.058C126.061 105.058 125.695 104.75 125.695 104.296C125.695 103.841 125.956 103.559 126.703 103.559H127.534V103.397C127.534 102.953 127.283 102.708 126.792 102.708C126.476 102.705 126.169 102.814 125.925 103.016L125.768 102.755C126.065 102.519 126.434 102.394 126.813 102.4C126.954 102.377 127.098 102.388 127.234 102.43C127.37 102.472 127.494 102.545 127.598 102.643C127.701 102.741 127.781 102.861 127.83 102.994C127.88 103.128 127.898 103.271 127.884 103.413ZM127.534 104.248V103.799H126.714C126.191 103.799 126.045 103.998 126.045 104.264C126.045 104.531 126.285 104.76 126.703 104.76C126.878 104.771 127.051 104.728 127.2 104.636C127.348 104.544 127.465 104.409 127.534 104.248Z" fill="#263238"/>
<path d="M128.484 104.734L128.641 104.457C128.913 104.649 129.238 104.752 129.57 104.75C130.067 104.75 130.27 104.577 130.27 104.322C130.27 103.643 128.578 104.175 128.578 103.147C128.578 102.718 128.944 102.4 129.623 102.4C129.948 102.394 130.268 102.479 130.547 102.645L130.396 102.927C130.168 102.774 129.897 102.695 129.623 102.703C129.153 102.703 128.944 102.885 128.944 103.136C128.944 103.841 130.636 103.308 130.636 104.311C130.636 104.766 130.239 105.058 129.56 105.058C129.175 105.072 128.797 104.958 128.484 104.734Z" fill="#263238"/>
<path d="M132.213 104.734L132.37 104.457C132.642 104.649 132.967 104.751 133.299 104.75C133.822 104.75 133.999 104.577 133.999 104.321C133.999 103.642 132.307 104.175 132.307 103.146C132.307 102.718 132.673 102.399 133.352 102.399C133.675 102.394 133.993 102.479 134.271 102.645L134.119 102.927C133.893 102.774 133.625 102.696 133.352 102.702C132.876 102.702 132.667 102.885 132.667 103.136C132.667 103.841 134.365 103.308 134.365 104.311C134.365 104.765 133.963 105.058 133.284 105.058C132.901 105.071 132.525 104.957 132.213 104.734Z" fill="#263238"/>
<path d="M137.357 102.421V105.032H137.018V104.557C136.923 104.721 136.786 104.856 136.62 104.948C136.455 105.04 136.267 105.085 136.078 105.079C135.928 105.093 135.777 105.074 135.635 105.022C135.493 104.97 135.365 104.888 135.26 104.78C135.154 104.672 135.074 104.543 135.025 104.4C134.976 104.258 134.959 104.106 134.976 103.956V102.442H135.331V103.92C135.331 104.478 135.618 104.76 136.114 104.76C136.238 104.767 136.362 104.746 136.476 104.699C136.591 104.653 136.695 104.582 136.779 104.491C136.864 104.401 136.927 104.293 136.966 104.175C137.004 104.058 137.017 103.933 137.002 103.81V102.442L137.357 102.421Z" fill="#263238"/>
<path d="M138.083 103.726C138.077 103.549 138.108 103.373 138.174 103.208C138.239 103.043 138.338 102.894 138.464 102.769C138.59 102.645 138.741 102.548 138.906 102.484C139.072 102.42 139.248 102.392 139.425 102.4C139.631 102.384 139.836 102.425 140.02 102.517C140.204 102.609 140.359 102.749 140.47 102.922L140.209 103.1C140.124 102.977 140.009 102.878 139.876 102.81C139.743 102.743 139.595 102.71 139.446 102.713C139.216 102.766 139.01 102.895 138.862 103.08C138.714 103.265 138.634 103.495 138.634 103.731C138.634 103.968 138.714 104.198 138.862 104.383C139.01 104.568 139.216 104.697 139.446 104.75C139.595 104.754 139.743 104.722 139.876 104.655C140.009 104.589 140.123 104.49 140.209 104.369L140.47 104.546C140.358 104.718 140.202 104.857 140.018 104.948C139.835 105.04 139.63 105.082 139.425 105.068C139.247 105.076 139.069 105.046 138.903 104.981C138.737 104.916 138.586 104.818 138.46 104.692C138.334 104.566 138.235 104.415 138.17 104.248C138.106 104.082 138.076 103.904 138.083 103.726Z" fill="#263238"/>
<path d="M140.856 103.726C140.851 103.549 140.883 103.372 140.949 103.208C141.015 103.043 141.114 102.894 141.241 102.769C141.367 102.645 141.518 102.548 141.684 102.484C141.85 102.42 142.027 102.392 142.204 102.4C142.409 102.384 142.614 102.425 142.798 102.517C142.982 102.609 143.138 102.749 143.248 102.922L142.982 103.1C142.898 102.977 142.785 102.877 142.653 102.81C142.52 102.742 142.373 102.709 142.225 102.713C141.994 102.766 141.788 102.895 141.64 103.08C141.493 103.265 141.412 103.495 141.412 103.731C141.412 103.968 141.493 104.198 141.64 104.383C141.788 104.568 141.994 104.697 142.225 104.75C142.373 104.755 142.52 104.723 142.652 104.656C142.785 104.589 142.898 104.491 142.982 104.369L143.248 104.546C143.136 104.718 142.98 104.857 142.797 104.948C142.613 105.04 142.409 105.082 142.204 105.068C142.025 105.076 141.847 105.046 141.681 104.981C141.515 104.916 141.363 104.818 141.237 104.692C141.11 104.566 141.011 104.415 140.946 104.249C140.88 104.083 140.85 103.905 140.856 103.726Z" fill="#263238"/>
<path d="M146.121 103.836H143.938C143.945 103.965 143.978 104.091 144.035 104.207C144.091 104.323 144.171 104.426 144.268 104.511C144.366 104.595 144.479 104.66 144.602 104.7C144.724 104.74 144.854 104.755 144.982 104.745C145.132 104.748 145.282 104.719 145.419 104.659C145.557 104.6 145.681 104.511 145.781 104.4L145.985 104.63C145.797 104.826 145.556 104.962 145.291 105.022C145.026 105.081 144.749 105.062 144.495 104.965C144.242 104.869 144.022 104.7 143.863 104.48C143.705 104.26 143.614 103.997 143.604 103.726C143.594 103.554 143.62 103.382 143.68 103.22C143.74 103.058 143.833 102.911 143.953 102.786C144.072 102.662 144.216 102.563 144.375 102.497C144.534 102.43 144.705 102.397 144.878 102.4C145.05 102.396 145.222 102.429 145.381 102.495C145.54 102.562 145.684 102.66 145.803 102.785C145.922 102.909 146.014 103.057 146.074 103.219C146.133 103.381 146.158 103.554 146.147 103.726C146.126 103.757 146.121 103.799 146.121 103.836ZM143.938 103.569H145.787C145.787 103.324 145.689 103.089 145.516 102.916C145.342 102.742 145.107 102.645 144.862 102.645C144.617 102.645 144.382 102.742 144.209 102.916C144.035 103.089 143.938 103.324 143.938 103.569Z" fill="#263238"/>
<path d="M146.481 104.734L146.643 104.457C146.914 104.651 147.24 104.754 147.573 104.75C148.069 104.75 148.273 104.577 148.273 104.322C148.273 103.643 146.575 104.175 146.575 103.147C146.575 102.718 146.946 102.4 147.62 102.4C147.945 102.394 148.265 102.479 148.544 102.645L148.393 102.927C148.164 102.775 147.894 102.696 147.62 102.703C147.15 102.703 146.941 102.885 146.941 103.136C146.941 103.841 148.633 103.308 148.633 104.311C148.633 104.766 148.236 105.058 147.557 105.058C147.173 105.07 146.795 104.957 146.481 104.734Z" fill="#263238"/>
<path d="M148.91 104.734L149.072 104.457C149.343 104.651 149.668 104.754 150.001 104.75C150.497 104.75 150.701 104.577 150.701 104.322C150.701 103.643 149.004 104.175 149.004 103.147C149.004 102.718 149.375 102.4 150.048 102.4C150.373 102.394 150.693 102.479 150.973 102.645L150.821 102.927C150.593 102.775 150.323 102.696 150.048 102.703C149.578 102.703 149.369 102.885 149.369 103.136C149.369 103.841 151.061 103.308 151.061 104.311C151.061 104.766 150.665 105.058 149.986 105.058C149.601 105.07 149.223 104.957 148.91 104.734Z" fill="#263238"/>
<path d="M152.106 102.112V102.421H152.91V102.718H152.116V105.032H151.761V102.718H151.302V102.421H151.766V102.097C151.757 101.992 151.772 101.886 151.808 101.787C151.845 101.688 151.903 101.598 151.978 101.524C152.054 101.45 152.145 101.394 152.244 101.36C152.344 101.325 152.45 101.313 152.555 101.324C152.742 101.317 152.926 101.374 153.077 101.486L152.957 101.752C152.849 101.662 152.711 101.616 152.571 101.622C152.263 101.622 152.106 101.789 152.106 102.112Z" fill="#263238"/>
<path d="M155.741 102.421V105.032H155.401V104.557C155.307 104.721 155.169 104.856 155.004 104.948C154.838 105.04 154.651 105.085 154.461 105.079C154.311 105.093 154.16 105.074 154.018 105.022C153.877 104.97 153.749 104.888 153.643 104.78C153.537 104.672 153.457 104.543 153.408 104.4C153.359 104.258 153.342 104.106 153.359 103.956V102.442H153.714V103.92C153.714 104.478 154.002 104.76 154.498 104.76C154.622 104.767 154.745 104.746 154.86 104.699C154.975 104.653 155.078 104.582 155.162 104.491C155.247 104.401 155.311 104.293 155.349 104.175C155.388 104.058 155.4 103.933 155.386 103.81V102.442L155.741 102.421Z" fill="#263238"/>
<path d="M156.728 101.35H157.083V105.032H156.728V101.35Z" fill="#263238"/>
<path d="M127.288 77.5504C134.839 77.5504 140.961 71.4289 140.961 63.8776C140.961 56.3263 134.839 50.2048 127.288 50.2048C119.737 50.2048 113.615 56.3263 113.615 63.8776C113.615 71.4289 119.737 77.5504 127.288 77.5504Z" fill="#76BA03"/>
<path d="M134.02 58.1068C134.192 58.2478 131.639 61.6843 128.317 65.7788L126.301 68.223L126.024 68.5572L125.732 68.2543C123.121 65.5751 121.361 63.5905 121.486 63.4652C121.611 63.3398 123.601 65.1103 126.275 67.7059L125.711 67.7634L127.685 65.2931C131.007 61.1724 133.843 57.9658 134.02 58.1068Z" fill="white"/>
<path d="M146.711 58.3627C146.304 56.9265 144.439 57.0675 144.439 57.0675L144.486 58.065C145.567 57.877 146.236 59.1409 146.236 59.1409L146.711 58.3627Z" fill="#76BA03"/>
<path d="M107.103 61.3813C106.701 59.945 104.831 60.0808 104.831 60.0808L104.883 61.0836C105.964 60.8956 106.633 62.1594 106.633 62.1594L107.103 61.3813Z" fill="#E0E0E0"/>
<path d="M128.918 41.5093C131.085 42.1674 132.432 39.671 132.432 39.671L131.116 38.9189C130.469 40.4492 128.307 40.2716 128.307 40.2716L128.918 41.5093Z" fill="#E0E0E0"/>
<path d="M116.9 44.199C115.892 44.3086 115.772 45.5725 115.772 45.5725L116.446 45.6509C116.446 44.9092 117.37 44.6063 117.37 44.6063L116.9 44.199Z" fill="#76BA03"/>
<path d="M158.441 53.4535C158.587 52.4508 157.396 52.0173 157.396 52.0173L157.151 52.6493C157.872 52.8321 157.94 53.8035 157.94 53.8035L158.441 53.4535Z" fill="#E0E0E0"/>
<path d="M122.781 31.0014C122.927 29.9987 121.737 29.5652 121.737 29.5652L121.491 30.2023C122.212 30.3851 122.28 31.3513 122.28 31.3513L122.781 31.0014Z" fill="#76BA03"/>
<path d="M97.8798 47.1759C97.7022 48.7426 99.7808 49.1291 99.7808 49.1291L100.157 48.0846C98.9086 47.9697 98.7311 46.5178 98.7311 46.5178L97.8798 47.1759Z" fill="#76BA03"/>
<path d="M144.236 41.478C145.249 41.5354 145.573 40.3081 145.573 40.3081L144.92 40.1201C144.8 40.8513 143.839 41.0027 143.839 41.0027L144.236 41.478Z" fill="#76BA03"/>
<path d="M149.766 45.6038C149.495 45.68 149.212 45.7065 148.931 45.6822C148.65 45.7071 148.367 45.6805 148.095 45.6038C148.647 45.4924 149.215 45.4924 149.766 45.6038Z" fill="#E0E0E0"/>
<path d="M150.654 43.332C150.759 43.8912 150.759 44.465 150.654 45.0242C150.543 44.4656 150.543 43.8906 150.654 43.332Z" fill="#E0E0E0"/>
<path d="M151.594 45.5464C151.866 45.4702 152.149 45.4437 152.43 45.4681C152.711 45.4431 152.994 45.4697 153.265 45.5464C152.714 45.6578 152.146 45.6578 151.594 45.5464Z" fill="#E0E0E0"/>
<path d="M150.712 47.8233C150.6 47.263 150.6 46.6863 150.712 46.126C150.816 46.6869 150.816 47.2624 150.712 47.8233Z" fill="#E0E0E0"/>
<path d="M152.059 46.873C152.028 46.8991 151.866 46.7633 151.699 46.5701C151.532 46.3769 151.432 46.1889 151.464 46.1627C151.495 46.1366 151.662 46.2672 151.824 46.4657C151.986 46.6641 152.096 46.8156 152.059 46.873Z" fill="#E0E0E0"/>
<path d="M151.981 44.2615C152.012 44.298 151.902 44.4599 151.73 44.6323C151.558 44.8046 151.396 44.9195 151.364 44.8882C151.333 44.8568 151.443 44.6897 151.615 44.5174C151.787 44.345 151.949 44.2615 151.981 44.2615Z" fill="#E0E0E0"/>
<path d="M150.069 44.925C150.038 44.9615 149.881 44.878 149.719 44.7422C149.557 44.6064 149.453 44.4706 149.479 44.4393C149.505 44.4079 149.662 44.4863 149.824 44.6168C149.986 44.7474 150.095 44.8936 150.069 44.925Z" fill="#E0E0E0"/>
<path d="M149.991 46.0635C150.027 46.0896 149.928 46.2515 149.771 46.4239C149.615 46.5962 149.463 46.7059 149.432 46.6746C149.401 46.6432 149.495 46.4813 149.651 46.3142C149.808 46.1471 149.96 46.0322 149.991 46.0635Z" fill="#E0E0E0"/>
<path d="M104.267 40.9453C103.715 41.0567 103.147 41.0567 102.596 40.9453C102.867 40.8692 103.15 40.8426 103.431 40.867C103.712 40.8421 103.995 40.8686 104.267 40.9453Z" fill="#76BA03"/>
<path d="M105.155 38.6736C105.266 39.2339 105.266 39.8106 105.155 40.3709C105.043 39.8106 105.043 39.2339 105.155 38.6736Z" fill="#76BA03"/>
<path d="M106.1 40.8929C106.652 40.7815 107.22 40.7815 107.771 40.8929C107.22 41.0043 106.652 41.0043 106.1 40.8929Z" fill="#76BA03"/>
<path d="M105.212 43.1648C105.101 42.6062 105.101 42.0312 105.212 41.4727C105.324 42.0312 105.324 42.6062 105.212 43.1648Z" fill="#76BA03"/>
<path d="M106.565 42.1726C106.528 42.204 106.366 42.0682 106.205 41.8697C106.043 41.6713 105.933 41.4937 105.97 41.4624C106.006 41.431 106.163 41.5721 106.33 41.7653C106.497 41.9585 106.596 42.1726 106.565 42.1726Z" fill="#76BA03"/>
<path d="M106.487 39.6136C106.518 39.645 106.403 39.8121 106.236 39.9844C106.069 40.1568 105.902 40.2664 105.87 40.2351C105.839 40.2038 105.949 40.0419 106.121 39.8695C106.293 39.6972 106.455 39.5614 106.487 39.6136Z" fill="#76BA03"/>
<path d="M104.57 40.2715C104.544 40.3028 104.387 40.2245 104.225 40.0887C104.063 39.9529 103.954 39.8171 103.985 39.7806C104.016 39.744 104.168 39.8276 104.33 39.9634C104.492 40.0992 104.601 40.2349 104.57 40.2715Z" fill="#76BA03"/>
<path d="M104.497 41.4049C104.528 41.4362 104.429 41.5981 104.277 41.7705C104.126 41.9428 103.969 42.0525 103.933 42.0212C103.896 41.9898 104.001 41.8279 104.152 41.6608C104.304 41.4937 104.46 41.3736 104.497 41.4049Z" fill="#76BA03"/>
<path d="M162.071 19.2192C160.845 19.3534 159.611 19.3988 158.378 19.355C157.148 19.399 155.915 19.3536 154.691 19.2192C155.915 19.0817 157.148 19.0363 158.378 19.0834C159.611 19.0364 160.845 19.0818 162.071 19.2192Z" fill="#263238"/>
<path d="M162.071 20.7599C160.845 20.8973 159.611 20.9427 158.378 20.8957C157.148 20.9428 155.915 20.8974 154.691 20.7599C155.915 20.6256 157.148 20.5802 158.378 20.6241C159.611 20.5804 160.845 20.6258 162.071 20.7599Z" fill="#263238"/>
<path d="M162.071 22.2902C160.845 22.4276 159.611 22.473 158.378 22.426C157.148 22.4731 155.915 22.4277 154.691 22.2902C155.915 22.1558 157.148 22.1104 158.378 22.1544C159.611 22.1107 160.845 22.156 162.071 22.2902Z" fill="#263238"/>
<path d="M118.91 148.549L136.107 148.684L136.278 126.974L119.08 126.839L118.91 148.549Z" fill="#EBEBEB"/>
<path d="M129.544 127.62L129.236 148.635L126.521 148.614L127.105 127.599L129.544 127.62Z" fill="#FAFAFA"/>
<path d="M109.197 127.458L119.063 127.536L136.261 127.672L119.047 129.933L118.901 148.557L109.035 148.478L109.197 127.458Z" fill="#E0E0E0"/>
<path d="M114.571 127.499L114.179 148.52L111.25 148.494L111.73 127.479L114.571 127.499Z" fill="#FAFAFA"/>
<path d="M122.379 121.102C122.379 121.238 122.092 121.373 121.564 121.504C120.284 121.787 118.97 121.882 117.663 121.786C117.371 121.786 117.068 121.734 116.749 121.687C116.41 121.639 116.075 121.567 115.746 121.473C115.53 121.407 115.321 121.318 115.125 121.206C114.863 121.053 114.64 120.842 114.472 120.59C114.293 120.307 114.196 119.98 114.19 119.645C114.189 119.399 114.217 119.153 114.274 118.914C114.427 118.169 114.648 117.441 114.932 116.736C115.101 116.345 115.313 115.974 115.564 115.629C115.692 115.445 115.833 115.27 115.987 115.106C116.16 114.93 116.352 114.774 116.561 114.641C116.799 114.491 117.063 114.384 117.339 114.328C117.635 114.271 117.94 114.28 118.232 114.354C118.669 114.475 119.072 114.697 119.407 115.002C120.327 115.777 121.094 116.718 121.669 117.775C122.053 118.478 122.309 119.244 122.426 120.036C122.494 120.6 122.426 120.919 122.301 120.945C122.024 121.013 121.622 119.901 120.525 118.511C119.887 117.718 119.144 117.015 118.316 116.422C118.163 116.299 117.985 116.211 117.794 116.166C117.763 116.159 117.73 116.159 117.7 116.166C117.648 116.187 117.599 116.213 117.553 116.245C117.475 116.303 117.401 116.368 117.334 116.438C117.256 116.527 117.167 116.637 117.089 116.746C116.926 116.982 116.788 117.234 116.676 117.498C116.439 118.099 116.242 118.715 116.086 119.342C116.059 119.43 116.041 119.521 116.034 119.613H115.981C115.919 119.613 115.903 119.645 115.945 119.613L116.007 119.566C116.02 119.585 116.036 119.601 116.054 119.613C116.132 119.664 116.214 119.706 116.3 119.739C116.551 119.83 116.807 119.907 117.068 119.969C117.334 120.042 117.59 120.099 117.856 120.151C118.378 120.256 118.864 120.329 119.319 120.392C120.233 120.512 120.995 120.595 121.522 120.694C122.05 120.794 122.374 120.971 122.379 121.102Z" fill="#E0E0E0"/>
<path d="M122.024 121.258C121.977 120.987 123.262 120.585 125.267 119.995C126.42 119.665 127.551 119.26 128.651 118.783C128.913 118.678 129.16 118.541 129.388 118.376C129.466 118.308 129.503 118.25 129.492 118.255C129.482 118.261 129.492 118.334 129.466 118.297C129.434 118.193 129.394 118.092 129.346 117.994L129.095 117.472C128.941 117.15 128.767 116.837 128.573 116.537C128.4 116.269 128.195 116.024 127.962 115.806C127.853 115.706 127.738 115.614 127.617 115.529C127.52 115.462 127.414 115.405 127.304 115.362C127.14 115.286 126.956 115.27 126.782 115.315C126.557 115.387 126.351 115.507 126.176 115.665C125.283 116.409 124.493 117.268 123.826 118.219C122.671 119.859 122.369 121.138 122.081 121.096C121.956 121.096 121.862 120.731 121.909 120.099C121.994 119.207 122.246 118.339 122.651 117.54C123.239 116.34 124.037 115.254 125.006 114.333C125.353 113.993 125.77 113.731 126.228 113.566C126.78 113.375 127.379 113.375 127.931 113.566C128.182 113.656 128.422 113.775 128.646 113.921C128.851 114.05 129.045 114.197 129.226 114.359C129.586 114.682 129.902 115.051 130.166 115.456C130.408 115.828 130.623 116.217 130.808 116.621L131.059 117.174C131.179 117.424 131.265 117.69 131.315 117.963C131.379 118.353 131.311 118.754 131.122 119.101C130.965 119.381 130.747 119.622 130.484 119.807C130.121 120.054 129.726 120.251 129.309 120.391C128.091 120.829 126.828 121.132 125.544 121.295C123.392 121.587 122.055 121.509 122.024 121.258Z" fill="#EBEBEB"/>
<path d="M106.078 127.424L131.355 127.623L131.411 120.437L106.135 120.238L106.078 127.424Z" fill="#E0E0E0"/>
<path d="M115.37 127.496L138.218 127.676L138.275 120.489L115.427 120.31L115.37 127.496Z" fill="#EBEBEB"/>
<path d="M131.257 120.444L131.095 127.661L128.432 127.609L128.62 120.423L131.257 120.444Z" fill="#FAFAFA"/>
<path d="M112.325 120.334L112.064 127.489L109.134 127.463L109.291 120.271L112.325 120.334Z" fill="#FAFAFA"/>
<path d="M137.542 148.153L147.287 148.23L147.383 135.931L137.638 135.855L137.542 148.153Z" fill="#EBEBEB"/>
<path d="M143.562 136.294L143.389 148.207L141.849 148.197L142.178 136.284L143.562 136.294Z" fill="#FAFAFA"/>
<path d="M132.03 136.206L137.624 136.247L147.369 136.326L137.613 137.61L137.53 148.16L131.942 148.118L132.03 136.206Z" fill="#E0E0E0"/>
<path d="M135.075 136.232L134.856 148.139L133.195 148.129L133.467 136.216L135.075 136.232Z" fill="#FAFAFA"/>
<path d="M139.499 132.602C139.499 132.785 138.861 133.004 137.744 133.124C137.059 133.179 136.369 133.122 135.702 132.957C135.386 132.881 135.106 132.696 134.913 132.435C134.8 132.254 134.736 132.047 134.73 131.834C134.729 131.683 134.745 131.532 134.777 131.385C134.867 130.955 134.994 130.534 135.159 130.126C135.26 129.897 135.384 129.678 135.529 129.473C135.698 129.234 135.911 129.028 136.156 128.868C136.31 128.77 136.481 128.704 136.661 128.674C136.84 128.643 137.024 128.649 137.201 128.69C137.466 128.767 137.71 128.903 137.916 129.087C138.445 129.539 138.881 130.089 139.201 130.706C139.723 131.751 139.65 132.529 139.478 132.555C139.305 132.581 139.023 131.986 138.391 131.228C138.027 130.791 137.607 130.403 137.143 130.074C137.074 130.018 136.994 129.977 136.908 129.954L136.872 129.98C136.785 130.052 136.709 130.136 136.647 130.231C136.559 130.356 136.486 130.491 136.428 130.633C136.294 130.973 136.184 131.322 136.099 131.677L136.067 131.798H135.984H135.905C135.864 131.798 135.869 131.798 135.905 131.798C135.941 131.775 135.973 131.747 135.999 131.714L136.031 131.683C136.066 131.708 136.105 131.729 136.146 131.745C136.691 131.928 137.252 132.06 137.822 132.137C138.814 132.288 139.499 132.409 139.499 132.602Z" fill="#E0E0E0"/>
<path d="M139.29 132.696C139.253 132.487 139.979 132.21 141.097 131.839C141.736 131.635 142.364 131.397 142.977 131.124C143.109 131.068 143.233 130.996 143.348 130.91C143.379 130.863 143.379 130.884 143.348 130.91C143.324 130.955 143.311 131.005 143.311 131.056L143.118 130.649C143.033 130.469 142.937 130.295 142.831 130.126C142.744 129.987 142.639 129.861 142.517 129.75C142.429 129.659 142.324 129.585 142.209 129.531C142.157 129.513 142.1 129.513 142.047 129.531C141.941 129.558 141.844 129.612 141.765 129.688C141.267 130.092 140.82 130.555 140.433 131.067C139.76 131.949 139.54 132.659 139.326 132.633C139.112 132.607 138.982 131.766 139.525 130.544C139.85 129.838 140.303 129.199 140.862 128.659C141.075 128.447 141.332 128.284 141.614 128.178C141.965 128.055 142.348 128.055 142.7 128.178C142.858 128.231 143.009 128.303 143.149 128.393C143.274 128.474 143.393 128.565 143.504 128.664C143.72 128.856 143.91 129.076 144.068 129.317C144.207 129.537 144.333 129.766 144.444 130.001L144.585 130.32C144.664 130.485 144.718 130.661 144.747 130.842C144.789 131.106 144.742 131.376 144.611 131.61C144.508 131.791 144.368 131.947 144.199 132.069C143.98 132.218 143.741 132.336 143.489 132.419C142.784 132.664 142.053 132.825 141.311 132.9C140.089 132.983 139.331 132.889 139.29 132.696Z" fill="#E0E0E0"/>
<path d="M130.263 136.189L144.589 136.301L144.621 132.228L130.295 132.115L130.263 136.189Z" fill="#E0E0E0"/>
<path d="M135.539 136.226L148.485 136.328L148.517 132.254L135.571 132.153L135.539 136.226Z" fill="#EBEBEB"/>
<path d="M144.533 132.231L144.444 136.32L142.93 136.289L143.04 132.221L144.533 132.231Z" fill="#FAFAFA"/>
<path d="M133.806 132.168L133.66 136.221L131.999 136.211L132.088 132.132L133.806 132.168Z" fill="#FAFAFA"/>
<path d="M202.564 175.459C203.35 175.834 204.053 176.364 204.63 177.018C205.207 177.671 205.647 178.434 205.922 179.261C206.463 180.922 206.615 182.686 206.366 184.415C205.99 187.758 204.089 191.132 202.047 193.816C199.232 191.361 198.584 187.074 198.391 184.88C198.088 181.412 199.644 174.957 202.569 175.48" fill="#76BA03"/>
<path d="M205.316 199.321C205.124 198.365 205.188 197.376 205.502 196.453C205.815 195.531 206.368 194.707 207.102 194.067C207.846 193.439 208.708 192.966 209.637 192.675C210.566 192.385 211.544 192.282 212.513 192.375C213.411 192.443 214.377 192.704 214.889 193.419C215.109 193.779 215.228 194.191 215.234 194.613C215.241 195.034 215.134 195.45 214.926 195.816C214.5 196.544 213.889 197.146 213.155 197.561C210.716 199.091 208.074 200.125 205.321 199.3" fill="#76BA03"/>
<path d="M201.707 209.567C201.72 209.337 201.754 209.108 201.807 208.883C201.895 208.398 202.01 207.776 202.146 207.024C202.462 204.958 203.109 202.956 204.063 201.096C205.055 199.238 206.524 197.677 208.319 196.574C208.865 196.251 209.447 195.993 210.053 195.806C210.267 195.733 210.439 195.707 210.575 195.675C210.711 195.644 210.753 195.644 210.753 195.675C209.362 196.126 208.074 196.85 206.966 197.804C205.857 198.758 204.95 199.923 204.298 201.232C203.358 203.074 202.698 205.045 202.339 207.082C202.167 207.86 202.026 208.492 201.921 208.92C201.869 209.142 201.797 209.358 201.707 209.567Z" fill="#263238"/>
<path d="M201.807 180.478C201.831 180.577 201.843 180.678 201.843 180.78C201.843 181 201.874 181.303 201.895 181.642C201.932 182.389 201.979 183.47 202.021 184.812C202.104 187.491 202.172 191.194 202.156 195.257C202.141 199.321 202.042 203.05 201.927 205.729C201.874 207.071 201.822 208.152 201.775 208.899C201.749 209.254 201.733 209.536 201.718 209.761C201.754 209.463 201.666 209.954 201.666 209.761C201.666 209.567 201.666 209.238 201.666 208.894C201.666 208.116 201.707 207.04 201.739 205.724C201.807 203.044 201.88 199.347 201.901 195.278C201.921 191.21 201.874 187.491 201.833 184.833C201.833 183.517 201.796 182.436 201.78 181.658C201.78 181.303 201.78 181.021 201.78 180.796C201.782 180.689 201.79 180.583 201.807 180.478Z" fill="#263238"/>
<path d="M200.449 201.352C200.107 199.327 199.289 197.412 198.061 195.765C196.834 194.119 195.232 192.788 193.388 191.884C192.448 191.435 191.22 191.137 190.447 191.837C189.674 192.536 189.842 193.795 190.223 194.772C191.05 196.79 192.456 198.517 194.264 199.738C196.072 200.958 198.2 201.616 200.381 201.629" fill="#76BA03"/>
<path d="M193.842 195.054C194.051 195.12 194.252 195.208 194.443 195.315C194.675 195.42 194.9 195.541 195.116 195.675C195.411 195.834 195.697 196.008 195.973 196.197C196.316 196.426 196.645 196.673 196.96 196.939C197.326 197.236 197.675 197.553 198.004 197.89C198.762 198.663 199.43 199.52 199.994 200.443C200.542 201.377 200.98 202.371 201.3 203.405C201.438 203.855 201.55 204.314 201.634 204.778C201.714 205.18 201.77 205.586 201.801 205.995C201.853 206.371 201.833 206.711 201.848 207.008C201.865 207.264 201.865 207.52 201.848 207.776C201.844 207.994 201.82 208.21 201.775 208.424C201.718 208.424 201.812 207.494 201.65 206.016C201.606 205.612 201.542 205.211 201.457 204.815C201.378 204.386 201.242 203.937 201.107 203.467C200.78 202.456 200.342 201.484 199.801 200.569C199.248 199.66 198.598 198.815 197.863 198.046C197.543 197.71 197.205 197.391 196.85 197.091C196.526 196.798 196.192 196.568 195.894 196.338C194.667 195.487 193.816 195.101 193.842 195.054Z" fill="#263238"/>
</svg>
